<?xml version="1.0" encoding="UTF-8"?>
<svg version="1.1" xmlns="http://www.w3.org/2000/svg" width="256" height="256">
<path d="M0 0 C2.44590205 1.91595661 4.56322826 3.97693765 6.640625 6.28515625 C7.32125 7.02765625 8.001875 7.77015625 8.703125 8.53515625 C13.78062375 15.74192867 15.44552186 23.3651787 16.9296875 31.9296875 C17.46776041 35.16653237 17.46776041 35.16653237 18.71875 37.4375 C19.8771989 39.75930648 19.84142677 41.45789608 19.765625 44.03515625 C19.74757812 44.834375 19.72953125 45.63359375 19.7109375 46.45703125 C19.68773437 47.0603125 19.66453125 47.66359375 19.640625 48.28515625 C18.67189453 48.66027344 18.67189453 48.66027344 17.68359375 49.04296875 C17.00941406 49.45289063 16.33523437 49.8628125 15.640625 50.28515625 C15.15547671 53.01962846 14.8468117 55.53961752 14.640625 58.28515625 C14.33893434 59.62600361 14.02544819 60.96576245 13.640625 62.28515625 C14.630625 62.61515625 15.620625 62.94515625 16.640625 63.28515625 C16.640625 66.25515625 16.640625 69.22515625 16.640625 72.28515625 C20.270625 72.28515625 23.900625 72.28515625 27.640625 72.28515625 C27.970625 69.97515625 28.300625 67.66515625 28.640625 65.28515625 C31.115625 64.79015625 31.115625 64.79015625 33.640625 64.28515625 C33.970625 65.60515625 34.300625 66.92515625 34.640625 68.28515625 C34.970625 67.95515625 35.300625 67.62515625 35.640625 67.28515625 C42.70251595 66.82714522 49.2840337 67.25431714 56.16015625 68.8359375 C62.32552681 69.95250067 68.55002969 69.65198644 74.640625 68.28515625 C77.640625 71.91015625 77.640625 71.91015625 77.640625 75.28515625 C80.610625 75.78015625 80.610625 75.78015625 83.640625 76.28515625 C84.56533053 81.00115443 84.86986277 83.95781234 82.640625 88.28515625 C80.660625 88.28515625 78.680625 88.28515625 76.640625 88.28515625 C76.351875 89.23390625 76.063125 90.18265625 75.765625 91.16015625 C74.640625 94.28515625 74.640625 94.28515625 72.640625 96.28515625 C71.650625 96.28515625 70.660625 96.28515625 69.640625 96.28515625 C69.74375 97.17203125 69.846875 98.05890625 69.953125 98.97265625 C69.640625 102.28515625 69.640625 102.28515625 67.703125 104.76171875 C63.82849901 107.95433149 60.03685628 109.36399241 55.328125 110.97265625 C54.51150391 111.26720703 53.69488281 111.56175781 52.85351562 111.86523438 C45.2190071 114.57229118 38.21070809 116.565975 30.015625 116.47265625 C28.76523438 116.46621094 27.51484375 116.45976563 26.2265625 116.453125 C22.94641322 116.29947966 19.86158081 115.90457083 16.640625 115.28515625 C16.50204467 118.36849692 16.50204467 118.36849692 17.578125 121.53515625 C18.59732892 125.13234656 19.14940339 128.58550523 19.640625 132.28515625 C20.22030029 132.0428125 20.79997559 131.80046875 21.3972168 131.55078125 C24.03716379 130.45311214 26.68249096 129.3690423 29.328125 128.28515625 C30.24013672 127.90359375 31.15214844 127.52203125 32.09179688 127.12890625 C32.97802734 126.76796875 33.86425781 126.40703125 34.77734375 126.03515625 C35.58905029 125.7 36.40075684 125.36484375 37.23706055 125.01953125 C39.82531085 124.22872811 41.94999205 124.15114807 44.640625 124.28515625 C46.51682922 127.45125087 46.73725322 129.64348026 46.640625 133.28515625 C38.10507173 137.38590789 29.63667731 141.27400361 20.640625 144.28515625 C20.970625 146.59515625 21.300625 148.90515625 21.640625 151.28515625 C22.34574219 151.38570312 23.05085937 151.48625 23.77734375 151.58984375 C35.98093744 154.55333581 46.05995213 164.56007996 53.07421875 174.484375 C55.34835201 178.55059333 55.640625 181.66364431 55.640625 186.28515625 C54.650625 186.61515625 53.660625 186.94515625 52.640625 187.28515625 C52.52847656 188.28675781 52.41632813 189.28835937 52.30078125 190.3203125 C51.72890465 194.32344872 50.48696675 197.92962076 49.078125 201.72265625 C48.62308594 202.95886719 48.16804687 204.19507813 47.69921875 205.46875 C47.17521484 206.86287109 47.17521484 206.86287109 46.640625 208.28515625 C48.28224609 208.47078125 48.28224609 208.47078125 49.95703125 208.66015625 C53.640625 209.28515625 53.640625 209.28515625 56.578125 211.28515625 C59.04032734 214.86654147 59.16719896 216.96361378 59.109375 221.19921875 C58.52776491 223.78738366 57.72431155 224.67525458 55.640625 226.28515625 C45.99261701 229.61810447 35.00328468 229.60228396 25.640625 225.28515625 C24.61911745 224.30713666 23.61567159 223.30950197 22.640625 222.28515625 C24.16547085 217.18173071 25.70233531 212.08307671 27.28125 206.99609375 C27.81842921 205.2176655 28.3548857 203.43901879 28.890625 201.66015625 C29.17164063 200.77070313 29.45265625 199.88125 29.7421875 198.96484375 C31.43778532 193.25689069 31.8140611 189.13869214 30.640625 183.28515625 C14.05492618 178.51596943 -0.98481401 177.2452953 -17.06640625 185.0078125 C-25.02173456 189.43948602 -30.94066397 193.36599762 -34.06640625 202.18359375 C-35.359375 204.28515625 -35.359375 204.28515625 -38.03125 204.98828125 C-43.25564382 207.0240779 -45.60964893 211.19473693 -48.796875 215.66015625 C-49.44591797 216.52382812 -50.09496094 217.3875 -50.76367188 218.27734375 C-54.21300788 222.40453165 -54.21300788 222.40453165 -55.15649414 227.37744141 C-54.31884113 229.55290724 -54.31884113 229.55290724 -52.359375 232.28515625 C-51.921875 235.16015625 -51.921875 235.16015625 -52.359375 238.28515625 C-55.42416489 242.22560039 -57.50865196 243.6011694 -62.359375 244.28515625 C-69.95842592 244.88559939 -78.05199844 245.24532616 -84.359375 240.28515625 C-85.26076306 237.9693577 -85.55573508 236.79612715 -84.65356445 234.44848633 C-84.26386475 233.82353271 -83.87416504 233.1985791 -83.47265625 232.5546875 C-83.034375 231.84199707 -82.59609375 231.12930664 -82.14453125 230.39501953 C-81.65855469 229.63688965 -81.17257813 228.87875977 -80.671875 228.09765625 C-80.17945313 227.31116699 -79.68703125 226.52467773 -79.1796875 225.71435547 C-73.39993383 216.58794971 -67.35988609 207.39571737 -60.51171875 199.02734375 C-59.03129721 197.14662337 -59.03129721 197.14662337 -59.421875 193.78515625 C-59.359375 190.28515625 -59.359375 190.28515625 -57.734375 188.16015625 C-55.99876149 186.78993506 -54.26156068 185.42172377 -52.5234375 184.0546875 C-49.35923365 181.40738413 -46.8278745 178.39031607 -44.359375 175.09765625 C-43.555 174.05222656 -42.750625 173.00679687 -41.921875 171.9296875 C-38.74975931 167.58191906 -36.0694205 162.92936867 -33.359375 158.28515625 C-34.13015381 158.43138428 -34.90093262 158.5776123 -35.69506836 158.72827148 C-39.22835607 159.39654505 -42.76259775 160.0596368 -46.296875 160.72265625 C-47.50923828 160.95275391 -48.72160156 161.18285156 -49.97070312 161.41992188 C-53.42969312 162.06672488 -56.89206237 162.68470968 -60.359375 163.28515625 C-61.26502197 163.45007568 -62.17066895 163.61499512 -63.10375977 163.78491211 C-68.71315562 164.6506839 -68.71315562 164.6506839 -71.76953125 162.921875 C-72.31480469 162.27863281 -72.86007813 161.63539063 -73.421875 160.97265625 C-73.99035156 160.33714844 -74.55882812 159.70164063 -75.14453125 159.046875 C-76.359375 157.28515625 -76.359375 157.28515625 -76.359375 155.28515625 C-70.14887869 153.99928737 -63.93744811 152.71800947 -57.7253418 151.43994141 C-55.6115161 151.00447935 -53.49790772 150.56796099 -51.38452148 150.13037109 C-48.34935922 149.50211174 -45.31343948 148.87763684 -42.27734375 148.25390625 C-40.8569001 147.95861023 -40.8569001 147.95861023 -39.40776062 147.65734863 C-38.52707413 147.47716187 -37.64638763 147.2969751 -36.73901367 147.11132812 C-35.96402023 146.95144409 -35.18902679 146.79156006 -34.39054871 146.62683105 C-32.359375 146.28515625 -32.359375 146.28515625 -29.359375 146.28515625 C-29.854375 145.10953125 -29.854375 145.10953125 -30.359375 143.91015625 C-31.27964546 140.57417583 -31.33896692 138.81739312 -31.109375 135.47265625 C-31.02626193 129.25764593 -33.56353436 126.00645898 -37.359375 121.28515625 C-52.26089853 102.62045203 -52.26089853 102.62045203 -52.734375 94.59765625 C-52.9052033 91.92904124 -53.02869468 90.68569861 -54.74609375 88.60546875 C-56.57195827 87.04875391 -56.57195827 87.04875391 -59.359375 85.28515625 C-62.73709976 89.78878927 -62.79126296 92.84336792 -62.359375 98.28515625 C-62.03066406 98.90777344 -61.70195313 99.53039062 -61.36328125 100.171875 C-59.04592014 105.05005538 -59.57914953 111.5765326 -61.046875 116.671875 C-63.63806455 122.34010214 -67.38554838 125.60761303 -72.796875 128.66015625 C-76.19886984 129.48991109 -78.95433244 128.95281165 -82.359375 128.28515625 C-82.03839844 127.61226562 -81.71742187 126.939375 -81.38671875 126.24609375 C-80.15934389 122.70864072 -80.04698487 119.64828746 -79.921875 115.91015625 C-79.60245723 109.33348733 -78.90154419 104.5117556 -74.734375 99.22265625 C-72.75476361 96.43320383 -72.359375 94.72387673 -72.359375 91.28515625 C-73.43805641 89.16663229 -73.43805641 89.16663229 -74.859375 87.08203125 C-75.3234375 86.36885742 -75.7875 85.65568359 -76.265625 84.92089844 C-76.80703125 84.11120605 -76.80703125 84.11120605 -77.359375 83.28515625 C-98.07798959 85.34363984 -98.07798959 85.34363984 -118.67114258 88.37036133 C-121.98189567 88.93729975 -124.98419722 89.28515625 -128.359375 89.28515625 C-127.09506689 84.75471884 -125.64130098 81.67777114 -122.359375 78.28515625 C-119.49609375 77.24609375 -119.49609375 77.24609375 -116.046875 76.66015625 C-115.41604004 76.54953857 -114.78520508 76.4389209 -114.13525391 76.32495117 C-111.88056136 75.9452667 -109.62253621 75.61063357 -107.359375 75.28515625 C-106.41239746 75.14835449 -105.46541992 75.01155273 -104.48974609 74.87060547 C-99.44843478 74.15617135 -94.40294496 73.47537479 -89.3515625 72.8359375 C-88.50964355 72.72934814 -87.66772461 72.62275879 -86.80029297 72.51293945 C-84.30524705 72.2801051 -81.86373735 72.24575488 -79.359375 72.28515625 C-79.0190625 70.42890625 -79.0190625 70.42890625 -78.671875 68.53515625 C-78.54425781 67.8390625 -78.41664062 67.14296875 -78.28515625 66.42578125 C-78.38382 63.58011102 -79.66238064 62.52074328 -81.359375 60.28515625 C-82.02313188 56.88340226 -81.96542168 53.69554618 -81.359375 50.28515625 C-78.984375 47.16015625 -78.984375 47.16015625 -76.359375 45.28515625 C-75.699375 45.28515625 -75.039375 45.28515625 -74.359375 45.28515625 C-74.875 44.10953125 -75.390625 42.93390625 -75.921875 41.72265625 C-77.47816351 37.54796764 -77.51501614 34.66008341 -76.359375 30.28515625 C-75.885 29.52074219 -75.410625 28.75632813 -74.921875 27.96875 C-73.20715905 25.02372536 -72.38033762 22.31770956 -71.484375 19.03515625 C-68.58837993 9.39998468 -65.33312988 2.39521111 -56.359375 -2.71484375 C-39.23219459 -10.86069785 -15.96568302 -10.96802174 0 0 Z M-40.359375 53.28515625 C-40.029375 54.60515625 -39.699375 55.92515625 -39.359375 57.28515625 C-39.029375 55.96515625 -38.699375 54.64515625 -38.359375 53.28515625 C-39.019375 53.28515625 -39.679375 53.28515625 -40.359375 53.28515625 Z M-6.359375 59.28515625 C-6.029375 60.27515625 -5.699375 61.26515625 -5.359375 62.28515625 C-5.029375 61.29515625 -4.699375 60.30515625 -4.359375 59.28515625 C-5.019375 59.28515625 -5.679375 59.28515625 -6.359375 59.28515625 Z M6.640625 81.28515625 C6.310625 82.60515625 5.980625 83.92515625 5.640625 85.28515625 C11.40173985 90.35954677 11.40173985 90.35954677 18.53125 92.52734375 C20.96135568 92.25656055 23.27146255 91.88500802 25.640625 91.28515625 C25.640625 89.30515625 25.640625 87.32515625 25.640625 85.28515625 C24.320625 84.95515625 23.000625 84.62515625 21.640625 84.28515625 C21.640625 83.62515625 21.640625 82.96515625 21.640625 82.28515625 C16.55975704 81.43834492 11.79234123 81.19477526 6.640625 81.28515625 Z M32.640625 85.28515625 C33.640625 87.28515625 33.640625 87.28515625 33.640625 87.28515625 Z M52.640625 88.28515625 C52.310625 88.94515625 51.980625 89.60515625 51.640625 90.28515625 C52.300625 90.28515625 52.960625 90.28515625 53.640625 90.28515625 C53.310625 89.62515625 52.980625 88.96515625 52.640625 88.28515625 Z " fill="#181818" transform="translate(141.359375,9.71484375)"/>
<path d="M0 0 C2.44590205 1.91595661 4.56322826 3.97693765 6.640625 6.28515625 C7.32125 7.02765625 8.001875 7.77015625 8.703125 8.53515625 C13.78062375 15.74192867 15.44552186 23.3651787 16.9296875 31.9296875 C17.46776041 35.16653237 17.46776041 35.16653237 18.71875 37.4375 C19.8771989 39.75930648 19.84142677 41.45789608 19.765625 44.03515625 C19.74757812 44.834375 19.72953125 45.63359375 19.7109375 46.45703125 C19.68773437 47.0603125 19.66453125 47.66359375 19.640625 48.28515625 C18.67189453 48.66027344 18.67189453 48.66027344 17.68359375 49.04296875 C17.00941406 49.45289063 16.33523437 49.8628125 15.640625 50.28515625 C15.15547671 53.01962846 14.8468117 55.53961752 14.640625 58.28515625 C14.33893434 59.62600361 14.02544819 60.96576245 13.640625 62.28515625 C14.630625 62.61515625 15.620625 62.94515625 16.640625 63.28515625 C16.640625 66.25515625 16.640625 69.22515625 16.640625 72.28515625 C17.960625 72.61515625 19.280625 72.94515625 20.640625 73.28515625 C21.300625 73.61515625 21.960625 73.94515625 22.640625 74.28515625 C22.310625 76.26515625 21.980625 78.24515625 21.640625 80.28515625 C21.03968018 80.25486328 20.43873535 80.22457031 19.81958008 80.19335938 C-6.89269087 78.91819359 -33.62448717 79.1861423 -60.359375 79.28515625 C-60.16472656 79.878125 -59.97007813 80.47109375 -59.76953125 81.08203125 C-59.21987731 84.03445813 -60.41211823 85.71445947 -61.6484375 88.3515625 C-62.90590959 91.77161022 -62.65621232 94.663741 -62.359375 98.28515625 C-62.03066406 98.90519531 -61.70195313 99.52523437 -61.36328125 100.1640625 C-59.05071262 105.05015108 -59.57736539 111.57033881 -61.046875 116.671875 C-63.63806455 122.34010214 -67.38554838 125.60761303 -72.796875 128.66015625 C-76.19886984 129.48991109 -78.95433244 128.95281165 -82.359375 128.28515625 C-82.03839844 127.61226562 -81.71742187 126.939375 -81.38671875 126.24609375 C-80.15934389 122.70864072 -80.04698487 119.64828746 -79.921875 115.91015625 C-79.60245723 109.33348733 -78.90154419 104.5117556 -74.734375 99.22265625 C-72.75476361 96.43320383 -72.359375 94.72387673 -72.359375 91.28515625 C-73.43805641 89.16663229 -73.43805641 89.16663229 -74.859375 87.08203125 C-75.3234375 86.36885742 -75.7875 85.65568359 -76.265625 84.92089844 C-76.80703125 84.11120605 -76.80703125 84.11120605 -77.359375 83.28515625 C-98.07798959 85.34363984 -98.07798959 85.34363984 -118.67114258 88.37036133 C-121.98189567 88.93729975 -124.98419722 89.28515625 -128.359375 89.28515625 C-127.09506689 84.75471884 -125.64130098 81.67777114 -122.359375 78.28515625 C-119.49609375 77.24609375 -119.49609375 77.24609375 -116.046875 76.66015625 C-115.41604004 76.54953857 -114.78520508 76.4389209 -114.13525391 76.32495117 C-111.88056136 75.9452667 -109.62253621 75.61063357 -107.359375 75.28515625 C-106.41239746 75.14835449 -105.46541992 75.01155273 -104.48974609 74.87060547 C-99.44843478 74.15617135 -94.40294496 73.47537479 -89.3515625 72.8359375 C-88.50964355 72.72934814 -87.66772461 72.62275879 -86.80029297 72.51293945 C-84.30524705 72.2801051 -81.86373735 72.24575488 -79.359375 72.28515625 C-79.0190625 70.42890625 -79.0190625 70.42890625 -78.671875 68.53515625 C-78.54425781 67.8390625 -78.41664062 67.14296875 -78.28515625 66.42578125 C-78.38382 63.58011102 -79.66238064 62.52074328 -81.359375 60.28515625 C-82.02313188 56.88340226 -81.96542168 53.69554618 -81.359375 50.28515625 C-78.984375 47.16015625 -78.984375 47.16015625 -76.359375 45.28515625 C-75.699375 45.28515625 -75.039375 45.28515625 -74.359375 45.28515625 C-74.875 44.10953125 -75.390625 42.93390625 -75.921875 41.72265625 C-77.47816351 37.54796764 -77.51501614 34.66008341 -76.359375 30.28515625 C-75.885 29.52074219 -75.410625 28.75632813 -74.921875 27.96875 C-73.20715905 25.02372536 -72.38033762 22.31770956 -71.484375 19.03515625 C-68.58837993 9.39998468 -65.33312988 2.39521111 -56.359375 -2.71484375 C-39.23219459 -10.86069785 -15.96568302 -10.96802174 0 0 Z M-40.359375 53.28515625 C-40.029375 54.60515625 -39.699375 55.92515625 -39.359375 57.28515625 C-39.029375 55.96515625 -38.699375 54.64515625 -38.359375 53.28515625 C-39.019375 53.28515625 -39.679375 53.28515625 -40.359375 53.28515625 Z M-6.359375 59.28515625 C-6.029375 60.27515625 -5.699375 61.26515625 -5.359375 62.28515625 C-5.029375 61.29515625 -4.699375 60.30515625 -4.359375 59.28515625 C-5.019375 59.28515625 -5.679375 59.28515625 -6.359375 59.28515625 Z " fill="#141212" transform="translate(141.359375,9.71484375)"/>
<path d="M0 0 C2.44590205 1.91595661 4.56322826 3.97693765 6.640625 6.28515625 C7.32125 7.02765625 8.001875 7.77015625 8.703125 8.53515625 C13.50671232 15.35315115 15.7932622 22.24253343 15.703125 30.53515625 C15.69410156 31.6128125 15.68507813 32.69046875 15.67578125 33.80078125 C15.66417969 34.620625 15.65257812 35.44046875 15.640625 36.28515625 C14.79242188 35.82625 13.94421875 35.36734375 13.0703125 34.89453125 C-9.99667045 22.70136594 -38.74662726 19.38052652 -64.10546875 26.30859375 C-66.88978808 27.23342067 -69.63285946 28.20295548 -72.359375 29.28515625 C-73.19929651 19.2060981 -69.58260365 9.89254636 -63.21484375 2.03515625 C-47.62979428 -12.6640062 -16.91797661 -11.62222343 0 0 Z " fill="#181818" transform="translate(141.359375,9.71484375)"/>
<path d="M0 0 C7.95919321 0.13679863 15.10711731 1.01265622 22.6875 3.375 C23.37005859 3.58406982 24.05261719 3.79313965 24.75585938 4.00854492 C28.16793408 5.13204339 30.75369098 6.12270531 33 9 C31.35 9.66 29.7 10.32 28 11 C28.64066406 10.835 29.28132813 10.67 29.94140625 10.5 C32.78934151 9.9567277 35.10986851 9.69334361 38 10 C42.28826659 12.94818328 44.60327126 16.51887939 45.9375 21.5 C45.9684375 22.7375 45.9684375 22.7375 46 24 C43.525 25.98 43.525 25.98 41 28 C45.85234709 29.15702916 50.3982614 28.99265532 55.35546875 28.83984375 C58 29 58 29 60 31 C59.625 34.125 59.625 34.125 59 37 C58.37287109 36.96970703 57.74574219 36.93941406 57.09960938 36.90820312 C8.03157814 34.6478048 -39.48900756 36.49048946 -88 44 C-84.125 37.125 -84.125 37.125 -83 36 C-79.32378815 35.20719672 -75.59131449 34.69551761 -71.875 34.125 C-70.72660645 33.94864014 -69.57821289 33.77228027 -68.39501953 33.59057617 C-59.24313897 32.23526419 -50.0821516 31.1933373 -40.875 30.3125 C-39.63347168 30.19342285 -38.39194336 30.0743457 -37.11279297 29.95166016 C-22.08270417 28.5707969 -7.08175872 27.83549988 8 27.4375 C9.56511119 27.39413297 11.13021543 27.35051423 12.6953125 27.30664062 C16.4634683 27.20154237 20.23170006 27.09979064 24 27 C19.54203132 24.88991326 16.39038871 23.62148766 11.3828125 23.84765625 C10.36316406 23.87537109 9.34351562 23.90308594 8.29296875 23.93164062 C6.18862346 24.01856488 4.08444693 24.10968036 1.98046875 24.20507812 C-7.19421469 24.44225468 -13.69224911 22.28829742 -20.875 16.5 C-21.95394531 15.64921875 -21.95394531 15.64921875 -23.0546875 14.78125 C-25.01985386 12.98182056 -26.54611906 11.23111289 -28 9 C-28 8.34 -28 7.68 -28 7 C-25.91780951 6.18457569 -23.83420239 5.37276811 -21.75 4.5625 C-20.58984375 4.11003906 -19.4296875 3.65757813 -18.234375 3.19140625 C-13.28391355 1.36786671 -9.31516541 0.39990068 -4 1 C-1.32176438 2.45260237 1.1658688 4.04747739 3.66796875 5.78515625 C5.90912339 7.23853692 5.90912339 7.23853692 8.30078125 6.68359375 C8.86152344 6.45800781 9.42226562 6.23242188 10 6 C9.278125 5.896875 8.55625 5.79375 7.8125 5.6875 C4.72206579 4.93206053 2.58256159 3.84468685 0 2 C0 1.34 0 0.68 0 0 Z M-3 10 C-2.67 11.32 -2.34 12.64 -2 14 C-1.67 12.68 -1.34 11.36 -1 10 C-1.66 10 -2.32 10 -3 10 Z M31 16 C31.33 16.99 31.66 17.98 32 19 C32.33 18.01 32.66 17.02 33 16 C32.34 16 31.68 16 31 16 Z " fill="#E2A396" transform="translate(104,53)"/>
<path d="M0 0 C2.5347282 0.43042554 5.01465081 0.97461789 7.51953125 1.55078125 C13.68490181 2.66734442 19.90940469 2.36683019 26 1 C29 4.625 29 4.625 29 8 C30.98 8.33 32.96 8.66 35 9 C35.92470553 13.71599818 36.22923777 16.67265609 34 21 C32.02 21 30.04 21 28 21 C27.71125 21.94875 27.4225 22.8975 27.125 23.875 C26 27 26 27 24 29 C23.01 29 22.02 29 21 29 C21.1546875 30.3303125 21.1546875 30.3303125 21.3125 31.6875 C21 35 21 35 19.0625 37.4765625 C15.18787401 40.66917524 11.39623128 42.07883616 6.6875 43.6875 C5.87087891 43.98205078 5.05425781 44.27660156 4.21289062 44.58007812 C-3.58460534 47.34492729 -10.67399839 49.2736786 -19 49.125 C-20.01900391 49.11146484 -20.01900391 49.11146484 -21.05859375 49.09765625 C-22.70588741 49.07445493 -24.35299526 49.03860167 -26 49 C-25.34 48.34 -24.68 47.68 -24 47 C-24 46.01 -24 45.02 -24 44 C-21.2118978 42.4933028 -18.41896042 40.99580196 -15.625 39.5 C-14.8309375 39.07074219 -14.036875 38.64148438 -13.21875 38.19921875 C-12.45820313 37.79316406 -11.69765625 37.38710937 -10.9140625 36.96875 C-9.8614624 36.40317383 -9.8614624 36.40317383 -8.78759766 35.82617188 C-7 35 -7 35 -5 35 C-5.061875 34.2575 -5.12375 33.515 -5.1875 32.75 C-4.96709928 29.51745608 -4.02264742 28.4440323 -2 26 C-2 25.34 -2 24.68 -2 24 C-1.34 23.34 -0.68 22.68 0 22 C-0.8604139 17.66770285 -0.8604139 17.66770285 -3 14 C-5.37305578 13.58219121 -5.37305578 13.58219121 -8 14 C-9.35368596 15.31266518 -10.68799596 16.64567325 -12 18 C-13.32 18 -14.64 18 -16 18 C-16 19.32 -16 20.64 -16 22 C-16.66 22 -17.32 22 -18 22 C-18 20.35 -18 18.7 -18 17 C-16.35 16.34 -14.7 15.68 -13 15 C-12.95101562 14.22914062 -12.90203125 13.45828125 -12.8515625 12.6640625 C-12.77679688 11.66117188 -12.70203125 10.65828125 -12.625 9.625 C-12.52058594 8.12839844 -12.52058594 8.12839844 -12.4140625 6.6015625 C-12 4 -12 4 -10 2 C-10.66 2 -11.32 2 -12 2 C-12.33 3.32 -12.66 4.64 -13 6 C-14.32 6 -15.64 6 -17 6 C-14.25723117 -2.22830649 -7.48050472 -0.52269277 0 0 Z M4 21 C3.67 21.66 3.34 22.32 3 23 C3.66 23 4.32 23 5 23 C4.67 22.34 4.34 21.68 4 21 Z " fill="#1E1E1E" transform="translate(190,77)"/>
<path d="M0 0 C0.495 0.495 0.495 0.495 1 1 C1.33 -0.65 1.66 -2.3 2 -4 C2.33 -4 2.66 -4 3 -4 C6.125 5.375 6.125 5.375 6.0625 9.6875 C6.05347656 10.49574219 6.04445313 11.30398437 6.03515625 12.13671875 C6.02355469 12.75160156 6.01195312 13.36648437 6 14 C4.68 14 3.36 14 2 14 C2 13.34 2 12.68 2 12 C1.27554688 11.71898438 0.55109375 11.43796875 -0.1953125 11.1484375 C-2.81948293 10.07391646 -5.32873356 8.87037019 -7.875 7.625 C-29.24865651 -2.16401883 -55.46218444 -2.89450561 -78 3 C-79.93513348 3.3870267 -81.87247309 3.76330007 -83.8125 4.125 C-86.14100614 4.56963936 -87.87783148 4.93891574 -90 6 C-91.02841855 1.57780026 -91.1283893 -0.95606034 -89 -5 C-88.04175747 -6.36365283 -87.05278825 -7.70794169 -86 -9 C-85.67 -8.01 -85.34 -7.02 -85 -6 C-84.40316406 -6.26554687 -83.80632812 -6.53109375 -83.19140625 -6.8046875 C-57.61746807 -17.21666233 -23.61995698 -13.44393348 0 0 Z " fill="#9C0000" transform="translate(155,44)"/>
<path d="M0 0 C-0.598125 0.144375 -1.19625 0.28875 -1.8125 0.4375 C-3.56150404 0.8872439 -5.28677023 1.42892341 -7 2 C-6.79503906 2.56847656 -6.59007812 3.13695313 -6.37890625 3.72265625 C-6.10949219 4.49480469 -5.84007812 5.26695312 -5.5625 6.0625 C-5.29566406 6.81660156 -5.02882812 7.57070312 -4.75390625 8.34765625 C-3.84659245 11.53970842 -3.41462198 14.71120235 -3 18 C-2.13048706 17.63648438 -2.13048706 17.63648438 -1.2434082 17.265625 C1.39653879 16.16795589 4.04186596 15.08388605 6.6875 14 C7.59951172 13.6184375 8.51152344 13.236875 9.45117188 12.84375 C10.33740234 12.4828125 11.22363281 12.121875 12.13671875 11.75 C12.94842529 11.41484375 13.76013184 11.0796875 14.59643555 10.734375 C17.18468585 9.94357186 19.30936705 9.86599182 22 10 C23.87620422 13.16609462 24.09662822 15.35832401 24 19 C14.79543083 23.41768396 5.59538395 27.48870435 -4 31 C-4 28.03 -4 25.06 -4 22 C-7.60831293 22.90207823 -10.99562949 24.02715601 -14.48828125 25.28125 C-20.59857649 27.02976372 -26.64254952 27.1326237 -32.9375 27.0625 C-33.71673828 27.05798828 -34.49597656 27.05347656 -35.29882812 27.04882812 C-37.19925268 27.03716908 -39.09963706 27.01923877 -41 27 C-40.60167969 26.27296875 -40.20335938 25.5459375 -39.79296875 24.796875 C-36.03470888 17.66441102 -33.59641475 10.8980519 -32 3 C-30.49759766 2.90912109 -30.49759766 2.90912109 -28.96484375 2.81640625 C-27.62238669 2.73191595 -26.27993928 2.64727232 -24.9375 2.5625 C-23.62652344 2.48128906 -22.31554687 2.40007812 -20.96484375 2.31640625 C-13.33541573 1.70755534 -7.32809116 -1.38265871 0 0 Z " fill="#181818" transform="translate(164,124)"/>
<path d="M0 0 C1.10844919 3.32534757 0.84454356 5.62182575 0 9 C0.66 9.33 1.32 9.66 2 10 C0.96782349 10.11275269 0.96782349 10.11275269 -0.08520508 10.2277832 C-6.91649863 10.97974272 -13.74264086 11.76827493 -20.56591797 12.58984375 C-22.72033015 12.84716015 -24.87551852 13.09814155 -27.03173828 13.33984375 C-29.65035039 13.637382 -32.26206734 13.96909791 -34.875 14.3125 C-36.03092651 14.43395386 -36.03092651 14.43395386 -37.21020508 14.55786133 C-39.64882301 14.84379902 -39.64882301 14.84379902 -43 16 C-45.23463626 18.99210642 -45.23463626 18.99210642 -47 22 C-45.84290527 21.823479 -44.68581055 21.64695801 -43.49365234 21.46508789 C-1.1623972 15.04253489 -1.1623972 15.04253489 17 15 C18.25310827 18.81741593 17.40096708 20.46152664 15.7109375 24.06640625 C14.45346541 27.48645397 14.70316268 30.37858475 15 34 C15.32871094 34.62003906 15.65742187 35.24007812 15.99609375 35.87890625 C18.30866238 40.76499483 17.78200961 47.28518256 16.3125 52.38671875 C13.72131045 58.05494589 9.97382662 61.32245678 4.5625 64.375 C1.16050516 65.20475484 -1.59495744 64.6676554 -5 64 C-4.67902344 63.32710937 -4.35804687 62.65421875 -4.02734375 61.9609375 C-2.79996889 58.42348447 -2.68760987 55.36313121 -2.5625 51.625 C-2.24308223 45.04833108 -1.54216919 40.22659935 2.625 34.9375 C4.60461139 32.14804758 5 30.43872048 5 27 C3.92131859 24.88147604 3.92131859 24.88147604 2.5 22.796875 C2.0359375 22.08370117 1.571875 21.37052734 1.09375 20.63574219 C0.55234375 19.8260498 0.55234375 19.8260498 0 19 C-20.71861459 21.05848359 -20.71861459 21.05848359 -41.31176758 24.08520508 C-44.62252067 24.6521435 -47.62482222 25 -51 25 C-49.73569189 20.46956259 -48.28192598 17.39261489 -45 14 C-42.13671875 12.9609375 -42.13671875 12.9609375 -38.6875 12.375 C-38.05666504 12.26438232 -37.42583008 12.15376465 -36.77587891 12.03979492 C-34.52118636 11.66011045 -32.26316121 11.32547732 -30 11 C-28.57953369 10.79479736 -28.57953369 10.79479736 -27.13037109 10.58544922 C-22.08905978 9.8710151 -17.04356996 9.19021854 -11.9921875 8.55078125 C-11.15026855 8.44419189 -10.30834961 8.33760254 -9.44091797 8.2277832 C-6.94587205 7.99494885 -4.50436235 7.96059863 -2 8 C-1.855625 7.05125 -1.71125 6.1025 -1.5625 5.125 C-1 2 -1 2 0 0 Z " fill="#771F1F" transform="translate(64,74)"/>
<path d="M0 0 C1.32 0 2.64 0 4 0 C3.67 1.32 3.34 2.64 3 4 C2.01 3.505 2.01 3.505 1 3 C0.67 5.31 0.34 7.62 0 10 C-0.99 10 -1.98 10 -3 10 C-2.505 18.415 -2.505 18.415 -2 27 C-2.66 27 -3.32 27 -4 27 C-4.495 24.03 -4.495 24.03 -5 21 C-6.485 20.505 -6.485 20.505 -8 20 C-8 19.34 -8 18.68 -8 18 C-12.95 18 -17.9 18 -23 18 C-23.495 19.485 -23.495 19.485 -24 21 C-22.9171875 21.3403125 -22.9171875 21.3403125 -21.8125 21.6875 C-18.46790687 23.24831013 -16.48396041 25.3031287 -14 28 C-20.20514474 30.13619737 -25.42684522 31.36517527 -32 31 C-32.66 29.68 -33.32 28.36 -34 27 C-33.01 26.360625 -32.02 25.72125 -31 25.0625 C-30.01 24.381875 -29.02 23.70125 -28 23 C-28 22.67 -28 22.34 -28 22 C-28.62648437 22.42152344 -29.25296875 22.84304687 -29.8984375 23.27734375 C-30.71570313 23.82519531 -31.53296875 24.37304688 -32.375 24.9375 C-33.18710938 25.48277344 -33.99921875 26.02804688 -34.8359375 26.58984375 C-38.92321868 29.2532165 -42.20012278 29.54609382 -47 29 C-50.58900798 28.08188168 -54.12118073 27.02597801 -57.66796875 25.95703125 C-64.16695168 24.09038316 -71.24536088 23.21395718 -78 24 C-78.99 24.66 -79.98 25.32 -81 26 C-84.38995637 25.067762 -86.93850219 23.88609694 -89 21 C-89.6875 17.8125 -89.6875 17.8125 -90 15 C-86.72598956 14.27091431 -83.69564022 13.87401898 -80.34350586 13.87060547 C-79.44744125 13.86745331 -78.55137665 13.86430115 -77.62815857 13.86105347 C-76.18606773 13.86408981 -76.18606773 13.86408981 -74.71484375 13.8671875 C-73.19849083 13.86575241 -73.19849083 13.86575241 -71.65150452 13.86428833 C-69.5055434 13.86360806 -67.35958021 13.8654517 -65.21362305 13.86962891 C-62.00108929 13.87489575 -58.7887008 13.86972266 -55.57617188 13.86328125 C-39.66476727 13.85743616 -23.81373831 14.13102343 -8 16 C-7.67 14.02 -7.34 12.04 -7 10 C-7.99 9.67 -8.98 9.34 -10 9 C-9 8 -9 8 -5.4375 7.9375 C-4.303125 7.958125 -3.16875 7.97875 -2 8 C-1.855625 6.865625 -1.71125 5.73125 -1.5625 4.5625 C-1 1 -1 1 0 0 Z " fill="#141414" transform="translate(171,74)"/>
<path d="M0 0 C3.87802028 0.01364947 7.75592821 0.00821429 11.63396168 0.00287151 C15.38360879 -0.00045437 19.1331846 0.00612755 22.88281822 0.01600075 C24.6646659 0.01984169 26.44652147 0.02100556 28.22837257 0.0194149 C30.68664738 0.01904624 33.14450924 0.03159172 35.60272217 0.0479126 C36.33229126 0.04543518 37.06186035 0.04295776 37.8135376 0.04040527 C42.81996022 0.09376393 42.81996022 0.09376393 45.04876709 2.3225708 C44.67376709 5.4475708 44.67376709 5.4475708 44.04876709 8.3225708 C43.42163818 8.29227783 42.79450928 8.26198486 42.14837646 8.23077393 C-6.91965477 5.97037561 -54.44024047 7.81306026 -102.95123291 15.3225708 C-99.07623291 8.4475708 -99.07623291 8.4475708 -97.95123291 7.3225708 C-65.75643777 0.37951627 -32.76086708 -0.15735151 0 0 Z " fill="#BBBDBF" transform="translate(118.95123291015625,81.67742919921875)"/>
<path d="M0 0 C0.66 0.33 1.32 0.66 2 1 C1.835 1.639375 1.67 2.27875 1.5 2.9375 C0.84067485 6.97586652 0.91996221 10.91807258 1 15 C0.01 14.34 -0.98 13.68 -2 13 C-2 11.68 -2 10.36 -2 9 C-3.68252622 11.57327539 -4.0150238 12.82347033 -3.75 15.9375 C-3.11850393 18.93446762 -3.11850393 18.93446762 -1.9375 21.3125 C-0.58262175 25.19648431 -0.84023031 28.92587303 -1 33 C-1.99 32.67 -2.98 32.34 -4 32 C-4 31.34 -4 30.68 -4 30 C-6.475 29.01 -6.475 29.01 -9 28 C-9 29.32 -9 30.64 -9 32 C-9.9075 31.95875 -10.815 31.9175 -11.75 31.875 C-14.8782046 31.99531556 -16.38614006 32.3914708 -19 34 C-19.27560214 27.79895188 -18.22899346 22.06815522 -17 16 C-18.485 16.24363281 -18.485 16.24363281 -20 16.4921875 C-23.99931433 17.06150639 -27.96551869 17.14818667 -32 17.125 C-32.67289063 17.12886719 -33.34578125 17.13273437 -34.0390625 17.13671875 C-38.46889635 17.12816695 -42.64341336 16.7147525 -47 16 C-47.33 18.31 -47.66 20.62 -48 23 C-48.82638376 20.10765685 -49 18.11257569 -49 15 C-49.66 14.34 -50.32 13.68 -51 13 C-49.68 13 -48.36 13 -47 13 C-47 10.69 -47 8.38 -47 6 C-45.88310791 6.02356567 -45.88310791 6.02356567 -44.74365234 6.04760742 C-23.18197935 7.11902797 -23.18197935 7.11902797 -2.76953125 1.33203125 C-1.85558594 0.89246094 -0.94164062 0.45289063 0 0 Z " fill="#060505" transform="translate(160,144)"/>
<path d="M0 0 C0.66 0 1.32 0 2 0 C2.020625 0.9075 2.04125 1.815 2.0625 2.75 C2.68490942 6.30636626 2.68490942 6.30636626 6.1875 7.875 C6.82300781 8.184375 7.45851563 8.49375 8.11328125 8.8125 C10.35399138 10.22280203 11.39711251 11.68921683 12.875 13.875 C17.24271609 20.13461451 23.59087464 24.22515867 31 26 C35.99199901 26.17461142 40.98189525 25.94971856 45.97070312 25.74609375 C52.93295091 25.59749587 57.91269591 26.55930791 64 30 C64 30.33 64 30.66 64 31 C62.99324219 31.02505615 61.98648438 31.0501123 60.94921875 31.07592773 C57.13208121 31.17172961 53.31505483 31.27149207 49.49804688 31.37231445 C47.86135499 31.41502328 46.2246365 31.45672713 44.58789062 31.49731445 C34.91140647 31.7380378 25.26903697 32.10668163 15.61328125 32.79492188 C9.74193898 33.12816022 3.87953447 33.08268095 -2 33 C-1.505 28.545 -1.505 28.545 -1 24 C-2.32 23.34 -3.64 22.68 -5 22 C-6.85749351 18.28501298 -6.58415825 14.0446609 -6 10 C-3.625 6.875 -3.625 6.875 -1 5 C-0.34 5 0.32 5 1 5 C0.67 3.35 0.34 1.7 0 0 Z " fill="#171414" transform="translate(66,50)"/>
<path d="M0 0 C0.66 0.33 1.32 0.66 2 1 C1.505 1.721875 1.01 2.44375 0.5 3.1875 C-1.18088294 6.33915552 -1.56932956 7.50268986 -1 11 C-0.0475315 13.13583845 0.99699904 15.18205034 2.125 17.23046875 C3 19 3 19 3 21 C-0.88501735 22.94250868 -5.74294555 22.65349557 -10 23 C-9.34 26.63 -8.68 30.26 -8 34 C-13.75 33.125 -13.75 33.125 -16 32 C-14.69844994 36.07964281 -14.69844994 36.07964281 -13 40 C-13.99 40.495 -13.99 40.495 -15 41 C-14.38511719 40.98839844 -13.77023438 40.97679687 -13.13671875 40.96484375 C-12.32847656 40.95582031 -11.52023438 40.94679687 -10.6875 40.9375 C-9.88699219 40.92589844 -9.08648437 40.91429687 -8.26171875 40.90234375 C-6 41 -6 41 -3 42 C-2.67 41.01 -2.34 40.02 -2 39 C2.86118252 44.95886889 2.86118252 44.95886889 3.375 48.8125 C3 52 3 52 0.8125 54.8125 C-4.97790094 59.31614518 -12.96109934 58.6059431 -20 58 C-23.2874201 57.11878878 -26.3071113 56.11770859 -29 54 C-29.90138806 51.68420145 -30.19636008 50.5109709 -29.29418945 48.16333008 C-28.90448975 47.53837646 -28.51479004 46.91342285 -28.11328125 46.26953125 C-27.45585938 45.20049561 -27.45585938 45.20049561 -26.78515625 44.10986328 C-26.29917969 43.3517334 -25.81320313 42.59360352 -25.3125 41.8125 C-24.82007813 41.02601074 -24.32765625 40.23952148 -23.8203125 39.42919922 C-18.04055883 30.30279346 -12.00051109 21.11056112 -5.15234375 12.7421875 C-3.67192221 10.86146712 -3.67192221 10.86146712 -4.0625 7.5 C-4 4 -4 4 -2 1.5625 C-1.34 1.046875 -0.68 0.53125 0 0 Z " fill="#181818" transform="translate(86,196)"/>
<path d="M0 0 C0.33 1.65 0.66 3.3 1 5 C3.97 5.495 3.97 5.495 7 6 C7.92470553 10.71599818 8.22923777 13.67265609 6 18 C4.02 18 2.04 18 0 18 C-0.28875 18.94875 -0.5775 19.8975 -0.875 20.875 C-2 24 -2 24 -4 26 C-4.99 26 -5.98 26 -7 26 C-6.938125 26.9075 -6.87625 27.815 -6.8125 28.75 C-7.01896655 32.32875347 -7.34684029 33.62130509 -10 36 C-12.4375 36.5625 -12.4375 36.5625 -15 36 C-20.0117073 31.87271163 -20.89089555 25.10847679 -22 19 C-22 17.68 -22 16.36 -22 15 C-22.66 14.67 -23.32 14.34 -24 14 C-23.34 10.04 -22.68 6.08 -22 2 C-15.9453125 1.0234375 -15.9453125 1.0234375 -14 1 C-12 3 -12 3 -11.875 6.625 C-11.91625 7.73875 -11.9575 8.8525 -12 10 C-11.01 10 -10.02 10 -9 10 C-7.5216774 7.04335481 -7.93967217 4.25770263 -8 1 C-5.10765685 0.17361624 -3.11257569 0 0 0 Z " fill="#0D0C0C" transform="translate(218,80)"/>
<path d="M0 0 C6.78026209 1.43254768 13.40965402 3.18979498 20.0625 5.125 C21.02349609 5.40214844 21.98449219 5.67929688 22.97460938 5.96484375 C25.31712279 6.64079289 27.65888777 7.31921699 30 8 C27.11987979 22.74621549 27.11987979 22.74621549 25.8125 27.75 C24.87873219 30.92673403 24.87873219 30.92673403 25 34 C22.03 33.67 19.06 33.34 16 33 C16 35.31 16 37.62 16 40 C14.68 39.67 13.36 39.34 12 39 C12.99 39 13.98 39 15 39 C14.67 38.21625 14.34 37.4325 14 36.625 C13.07972954 33.28901958 13.02040808 31.53223687 13.25 28.1875 C13.38044864 20.91498836 9.26457236 16.70390739 4.78515625 11.35546875 C4.05167969 10.47503906 3.31820312 9.59460938 2.5625 8.6875 C1.86253906 7.88699219 1.16257812 7.08648437 0.44140625 6.26171875 C-1 4 -1 4 -0.59008789 1.85864258 C-0.39535889 1.24529053 -0.20062988 0.63193848 0 0 Z " fill="#1B1B1B" transform="translate(97,117)"/>
<path d="M0 0 C-0.08746284 1.43861294 -0.19565348 2.87597508 -0.3125 4.3125 C-0.39951172 5.51326172 -0.39951172 5.51326172 -0.48828125 6.73828125 C-1.08206694 9.36272334 -1.95780294 10.30820672 -4 12 C-4 11.34 -4 10.68 -4 10 C-5.15616821 10.21934204 -5.15616821 10.21934204 -6.33569336 10.44311523 C-9.86898107 11.1113888 -13.40322275 11.77448055 -16.9375 12.4375 C-18.14986328 12.66759766 -19.36222656 12.89769531 -20.61132812 13.13476562 C-24.07031812 13.78156863 -27.53268737 14.39955343 -31 15 C-31.90564697 15.16491943 -32.81129395 15.32983887 -33.74438477 15.49975586 C-39.35378062 16.36552765 -39.35378062 16.36552765 -42.41015625 14.63671875 C-42.95542969 13.99347656 -43.50070313 13.35023438 -44.0625 12.6875 C-44.63097656 12.05199219 -45.19945313 11.41648438 -45.78515625 10.76171875 C-47 9 -47 9 -47 7 C-41.59569904 5.82583308 -36.18810577 4.6688129 -30.77685547 3.52709961 C-28.93895399 3.13686468 -27.10201362 2.74207289 -25.26611328 2.3425293 C-22.617346 1.76692903 -19.96548235 1.20814968 -17.3125 0.65234375 C-16.50071289 0.47219223 -15.68892578 0.29204071 -14.85253906 0.10643005 C-9.56030037 -0.98051047 -5.32711643 -0.94023605 0 0 Z " fill="#232323" transform="translate(112,158)"/>
<path d="M0 0 C4.29161047 -0.05783842 8.58312145 -0.0935412 12.875 -0.125 C14.09832031 -0.14175781 15.32164062 -0.15851563 16.58203125 -0.17578125 C17.74863281 -0.18222656 18.91523438 -0.18867187 20.1171875 -0.1953125 C21.19597168 -0.20578613 22.27475586 -0.21625977 23.38623047 -0.22705078 C26 0 26 0 28 2 C27.625 5.125 27.625 5.125 27 8 C26.37287109 7.96970703 25.74574219 7.93941406 25.09960938 7.90820312 C7.85661535 7.11387668 -9.36538017 6.88967541 -26.625 6.875 C-27.64053955 6.87250244 -28.6560791 6.87000488 -29.70239258 6.86743164 C-40.79541665 6.84505765 -51.8384515 6.93651337 -62.90713501 7.73849487 C-67.11413713 8.0189144 -70.8724713 7.87894286 -75 7 C-75 6.67 -75 6.34 -75 6 C-50.16525289 2.57702899 -25.03463315 1.71794355 0 1 C0 0.67 0 0.34 0 0 Z " fill="#B5B7B9" transform="translate(136,82)"/>
<path d="M0 0 C2.5347282 0.43042554 5.01465081 0.97461789 7.51953125 1.55078125 C13.68490181 2.66734442 19.90940469 2.36683019 26 1 C26.495 1.99 26.495 1.99 27 3 C25.02 3.66 23.04 4.32 21 5 C21.04125 5.928125 21.0825 6.85625 21.125 7.8125 C21 11 21 11 19 14 C17.68 13.67 16.36 13.34 15 13 C15.020625 11.865625 15.04125 10.73125 15.0625 9.5625 C15.41577477 6.18424326 15.41577477 6.18424326 14 5 C10.36805359 4.80850919 10.36805359 4.80850919 7 6 C6.27016417 8.54340637 6.27016417 8.54340637 5.8125 11.5 C5.63332031 12.5003125 5.45414063 13.500625 5.26953125 14.53125 C5.18058594 15.3459375 5.09164062 16.160625 5 17 C5.33 17.33 5.66 17.66 6 18 C6.04080783 19.99958364 6.04254356 22.00045254 6 24 C5.01 23.67 4.02 23.34 3 23 C3.33 22.67 3.66 22.34 4 22 C2.68 22 1.36 22 0 22 C-0.4640625 20.2984375 -0.4640625 20.2984375 -0.9375 18.5625 C-1.62924531 15.21224901 -1.62924531 15.21224901 -3 14 C-5.37305578 13.58219121 -5.37305578 13.58219121 -8 14 C-9.35368596 15.31266518 -10.68799596 16.64567325 -12 18 C-13.32 18 -14.64 18 -16 18 C-16 19.32 -16 20.64 -16 22 C-16.66 22 -17.32 22 -18 22 C-18 20.35 -18 18.7 -18 17 C-16.35 16.34 -14.7 15.68 -13 15 C-12.95101562 14.22914062 -12.90203125 13.45828125 -12.8515625 12.6640625 C-12.73941406 11.15972656 -12.73941406 11.15972656 -12.625 9.625 C-12.55539063 8.62726563 -12.48578125 7.62953125 -12.4140625 6.6015625 C-12 4 -12 4 -10 2 C-10.66 2 -11.32 2 -12 2 C-12.33 3.32 -12.66 4.64 -13 6 C-14.32 6 -15.64 6 -17 6 C-14.25723117 -2.22830649 -7.48050472 -0.52269277 0 0 Z " fill="#222222" transform="translate(190,77)"/>
<path d="M0 0 C3.88577583 7.60964434 3.85607006 14.73118335 1.82421875 22.98828125 C0.05166411 27.31465869 -3.46917737 29.13645903 -7.4375 31.375 C-10.83949484 32.20475484 -13.59495744 31.6676554 -17 31 C-15.25 26.125 -15.25 26.125 -13 25 C-12.93941406 23.79601562 -12.87882812 22.59203125 -12.81640625 21.3515625 C-12.73200268 19.77602923 -12.64735459 18.20050904 -12.5625 16.625 C-12.50352539 15.43390625 -12.50352539 15.43390625 -12.44335938 14.21875 C-12.11328125 8.2265625 -12.11328125 8.2265625 -11 6 C-9.33720673 4.9935725 -7.67016516 3.99414593 -6 3 C-5.46375 2.443125 -4.9275 1.88625 -4.375 1.3125 C-3 0 -3 0 0 0 Z " fill="#9C0101" transform="translate(76,107)"/>
<path d="M0 0 C10.27027508 1.68616456 20.6453412 4.5549775 29 11 C29.33 9.35 29.66 7.7 30 6 C30.33 6 30.66 6 31 6 C34.125 15.375 34.125 15.375 34.0625 19.6875 C34.05347656 20.49574219 34.04445312 21.30398437 34.03515625 22.13671875 C34.02355469 22.75160156 34.01195312 23.36648437 34 24 C32.68 24 31.36 24 30 24 C30 23.34 30 22.68 30 22 C29.27554688 21.71898438 28.55109375 21.43796875 27.8046875 21.1484375 C25.18051707 20.07391646 22.67126644 18.87037019 20.125 17.625 C13.32410009 14.48970141 6.25162322 12.75174164 -1 11 C-0.67 7.37 -0.34 3.74 0 0 Z " fill="#9A0000" transform="translate(127,34)"/>
<path d="M0 0 C0.33 1.98 0.66 3.96 1 6 C3.475 6.495 3.475 6.495 6 7 C5.67 9.97 5.34 12.94 5 16 C4.030625 16.12375 3.06125 16.2475 2.0625 16.375 C1.051875 16.58125 0.04125 16.7875 -1 17 C-1.33 17.66 -1.66 18.32 -2 19 C-2 18.34 -2 17.68 -2 17 C-2.969375 17.020625 -3.93875 17.04125 -4.9375 17.0625 C-8 17 -8 17 -9 16 C-11.01594582 15.76572222 -13.038474 15.58663876 -15.0625 15.4375 C-16.16722656 15.35371094 -17.27195313 15.26992187 -18.41015625 15.18359375 C-19.69212891 15.09271484 -19.69212891 15.09271484 -21 15 C-21.33 16.32 -21.66 17.64 -22 19 C-22 17.68 -22 16.36 -22 15 C-22.66 14.67 -23.32 14.34 -24 14 C-23.34 10.04 -22.68 6.08 -22 2 C-15.9453125 1.0234375 -15.9453125 1.0234375 -14 1 C-12 3 -12 3 -11.875 6.625 C-11.91625 7.73875 -11.9575 8.8525 -12 10 C-11.01 10 -10.02 10 -9 10 C-7.5216774 7.04335481 -7.93967217 4.25770263 -8 1 C-5.10765685 0.17361624 -3.11257569 0 0 0 Z " fill="#0F0F0F" transform="translate(218,80)"/>
<path d="M0 0 C1.87620422 3.16609462 2.09662822 5.35832401 2 9 C-7.20456917 13.41768396 -16.40461605 17.48870435 -26 21 C-26.0272415 19.58344207 -26.04650467 18.16672955 -26.0625 16.75 C-26.07410156 15.96109375 -26.08570313 15.1721875 -26.09765625 14.359375 C-25.99889459 11.9732933 -25.85625081 10.23069375 -25 8 C-23.12988281 6.81152344 -23.12988281 6.81152344 -20.703125 5.859375 C-19.38828125 5.33730469 -19.38828125 5.33730469 -18.046875 4.8046875 C-16.66242188 4.28261719 -16.66242188 4.28261719 -15.25 3.75 C-14.3425 3.38648438 -13.435 3.02296875 -12.5 2.6484375 C-8.12509503 0.94708557 -4.74609137 -0.217169 0 0 Z " fill="#2B2B2B" transform="translate(186,134)"/>
<path d="M0 0 C3.75895752 1.38040813 5.92447034 4.48717938 8.07421875 7.76171875 C8.94921875 11.19921875 8.94921875 11.19921875 9.07421875 13.76171875 C3.65805628 19.17788122 -2.5368236 18.77992572 -9.80297852 18.87524414 C-11.53272292 18.87508864 -13.26247337 18.86961011 -14.9921875 18.859375 C-15.91168686 18.85796005 -16.83118622 18.8565451 -17.77854919 18.85508728 C-20.68182796 18.84954187 -23.58502626 18.83699992 -26.48828125 18.82421875 C-28.470702 18.81919668 -30.45312398 18.81463502 -32.43554688 18.81054688 C-37.26565545 18.79959039 -42.09570476 18.78236417 -46.92578125 18.76171875 C-46.92578125 18.43171875 -46.92578125 18.10171875 -46.92578125 17.76171875 C-45.85618164 17.7366626 -44.78658203 17.71160645 -43.68457031 17.68579102 C-39.71114398 17.59152347 -35.73788457 17.49135017 -31.76464844 17.3894043 C-30.0459382 17.34612859 -28.32718701 17.30444834 -26.60839844 17.2644043 C-24.13594225 17.2065231 -21.66369078 17.14288039 -19.19140625 17.078125 C-18.04118988 17.05305626 -18.04118988 17.05305626 -16.86773682 17.02748108 C-13.40404141 16.9315901 -10.26211874 16.68256013 -6.92578125 15.76171875 C-7.58578125 14.77171875 -8.24578125 13.78171875 -8.92578125 12.76171875 C-9.26284333 8.80123929 -9.02007586 6.16494749 -6.92578125 2.76171875 C-8.57578125 2.76171875 -10.22578125 2.76171875 -11.92578125 2.76171875 C-11.59578125 2.10171875 -11.26578125 1.44171875 -10.92578125 0.76171875 C-9.81203125 0.78234375 -8.69828125 0.80296875 -7.55078125 0.82421875 C-4.64241078 0.77407443 -2.68332888 -0.33201432 0 0 Z M-5.92578125 5.76171875 C-5.59578125 6.75171875 -5.26578125 7.74171875 -4.92578125 8.76171875 C-4.59578125 7.77171875 -4.26578125 6.78171875 -3.92578125 5.76171875 C-4.58578125 5.76171875 -5.24578125 5.76171875 -5.92578125 5.76171875 Z " fill="#C49389" transform="translate(140.92578125,63.23828125)"/>
<path d="M0 0 C1.98 1.32 3.96 2.64 6 4 C5.34 4.66 4.68 5.32 4 6 C4.66 7.65 5.32 9.3 6 11 C7.65 10.67 9.3 10.34 11 10 C11 10.99 11 11.98 11 13 C9.35 13 7.7 13 6 13 C6.33 15.31 6.66 17.62 7 20 C6.34 20.33 5.68 20.66 5 21 C5 18.69 5 16.38 5 14 C1.7 14.66 -1.6 15.32 -5 16 C-3.865625 16.763125 -2.73125 17.52625 -1.5625 18.3125 C1.25305075 20.20659778 1.88333826 20.65001479 3 24 C1.35 24.66 -0.3 25.32 -2 26 C-2 26.66 -2 27.32 -2 28 C-1.34 28 -0.68 28 0 28 C-0.99 30.475 -0.99 30.475 -2 33 C-7.28 33 -12.56 33 -18 33 C-16 31 -16 31 -13 30 C-13.66 29.34 -14.32 28.68 -15 28 C-15.125 25.375 -15.125 25.375 -15 23 C-12.69 23.33 -10.38 23.66 -8 24 C-8.15597656 23.28972656 -8.31195313 22.57945312 -8.47265625 21.84765625 C-8.76462891 20.46900391 -8.76462891 20.46900391 -9.0625 19.0625 C-9.25972656 18.14597656 -9.45695312 17.22945312 -9.66015625 16.28515625 C-9.77230469 15.53105469 -9.88445312 14.77695313 -10 14 C-8.12175109 12.12175109 -4.96064724 12.60897603 -2.4375 12.4375 C-1.23996094 12.35371094 -0.04242188 12.26992187 1.19140625 12.18359375 C2.11824219 12.12300781 3.04507813 12.06242188 4 12 C2.35 8.37 0.7 4.74 -1 1 C-0.67 0.67 -0.34 0.34 0 0 Z " fill="#040303" transform="translate(85,205)"/>
<path d="M0 0 C0.66 0.33 1.32 0.66 2 1 C1.505 1.721875 1.01 2.44375 0.5 3.1875 C-1.18088294 6.33915552 -1.56932956 7.50268986 -1 11 C-0.0475315 13.13583845 0.99699904 15.18205034 2.125 17.23046875 C3 19 3 19 3 21 C-0.88501735 22.94250868 -5.74294555 22.65349557 -10 23 C-9.34 26.63 -8.68 30.26 -8 34 C-13.75 33.125 -13.75 33.125 -16 32 C-14.69844994 36.07964281 -14.69844994 36.07964281 -13 40 C-13.77085938 40.27714844 -14.54171875 40.55429688 -15.3359375 40.83984375 C-16.84027344 41.38318359 -16.84027344 41.38318359 -18.375 41.9375 C-19.87160156 42.47697266 -19.87160156 42.47697266 -21.3984375 43.02734375 C-23.93504165 43.92349292 -23.93504165 43.92349292 -26 45 C-24.46431526 40.58490636 -22.11022837 36.90136517 -19.5 33.0625 C-19.06510254 32.41152344 -18.63020508 31.76054687 -18.18212891 31.08984375 C-15.90841936 27.71148148 -13.57492191 24.39952718 -11.1171875 21.15234375 C-10.65763672 20.5380249 -10.19808594 19.92370605 -9.72460938 19.29077148 C-8.84734357 18.12674386 -7.95603046 16.97312575 -7.04882812 15.83227539 C-3.97684715 11.74557607 -3.77094986 9.00896489 -4 4 C-2 1.5625 -2 1.5625 0 0 Z " fill="#232323" transform="translate(86,196)"/>
<path d="M0 0 C1.10844919 3.32534757 0.84454356 5.62182575 0 9 C0.66 9.33 1.32 9.66 2 10 C0.96782349 10.11275269 0.96782349 10.11275269 -0.08520508 10.2277832 C-6.91649863 10.97974272 -13.74264086 11.76827493 -20.56591797 12.58984375 C-22.72033015 12.84716015 -24.87551852 13.09814155 -27.03173828 13.33984375 C-29.65035039 13.637382 -32.26206734 13.96909791 -34.875 14.3125 C-36.03092651 14.43395386 -36.03092651 14.43395386 -37.21020508 14.55786133 C-39.64882301 14.84379902 -39.64882301 14.84379902 -43 16 C-45.23463626 18.99210642 -45.23463626 18.99210642 -47 22 C-45.75911621 21.81824219 -44.51823242 21.63648437 -43.23974609 21.44921875 C-38.62220181 20.77401901 -34.00385718 20.10443754 -29.38525391 19.43652344 C-27.38893833 19.14703339 -25.39284105 18.85603376 -23.39697266 18.56347656 C-20.52302637 18.14247995 -17.64833085 17.72697359 -14.7734375 17.3125 C-13.88570648 17.18125732 -12.99797546 17.05001465 -12.08334351 16.91479492 C-7.68031236 16.28545129 -3.46248638 15.84678158 1 16 C0.505 17.485 0.505 17.485 0 19 C-0.74870361 19.07516846 -1.49740723 19.15033691 -2.26879883 19.2277832 C-21.84925494 21.20472018 -21.84925494 21.20472018 -41.31176758 24.08520508 C-44.62252067 24.6521435 -47.62482222 25 -51 25 C-49.73569189 20.46956259 -48.28192598 17.39261489 -45 14 C-42.13671875 12.9609375 -42.13671875 12.9609375 -38.6875 12.375 C-38.05666504 12.26438232 -37.42583008 12.15376465 -36.77587891 12.03979492 C-34.52118636 11.66011045 -32.26316121 11.32547732 -30 11 C-28.57953369 10.79479736 -28.57953369 10.79479736 -27.13037109 10.58544922 C-22.08905978 9.8710151 -17.04356996 9.19021854 -11.9921875 8.55078125 C-11.15026855 8.44419189 -10.30834961 8.33760254 -9.44091797 8.2277832 C-6.94587205 7.99494885 -4.50436235 7.96059863 -2 8 C-1.855625 7.05125 -1.71125 6.1025 -1.5625 5.125 C-1 2 -1 2 0 0 Z " fill="#5C5C5C" transform="translate(64,74)"/>
<path d="M0 0 C7.12247309 1.54220913 14.18555925 3.27463969 21.25 5.0625 C23.35909196 5.59617193 25.46845755 6.12876388 27.578125 6.66015625 C28.50012695 6.89355713 29.42212891 7.12695801 30.37207031 7.36743164 C40.08202631 9.70471295 48.24797634 9.04154514 58 7 C56 10 56 10 52.87109375 10.68359375 C48.91258785 11.00714469 45.03362594 11.09764271 41.0625 11.0625 C40.37865234 11.05798828 39.69480469 11.05347656 38.99023438 11.04882812 C37.32678396 11.0371956 35.6633795 11.01926694 34 11 C33.9071875 12.85625 33.9071875 12.85625 33.8125 14.75 C33.13848006 20.89432669 30.92713927 26.57717841 28 32 C27.01 32.66 26.02 33.32 25 34 C24.34 33.67 23.68 33.34 23 33 C24.70169711 24.91693875 26.83713681 16.96899594 29 9 C27.88367188 8.89558594 26.76734375 8.79117188 25.6171875 8.68359375 C20.59324867 8.053664 15.92992144 6.61813062 11.125 5.0625 C10.27164063 4.79759766 9.41828125 4.53269531 8.5390625 4.25976562 C2.25679624 2.25679624 2.25679624 2.25679624 0 0 Z " fill="#060505" transform="translate(98,116)"/>
<path d="M0 0 C0.99 0.66 1.98 1.32 3 2 C2.34 3.65 1.68 5.3 1 7 C2.32 7 3.64 7 5 7 C5.33 5.35 5.66 3.7 6 2 C7.32 2.33 8.64 2.66 10 3 C9.01 3.66 8.02 4.32 7 5 C6.52878944 7.59297228 6.52878944 7.59297228 6.5 10.5 C6.40625 13.46875 6.40625 13.46875 6 16 C3 18 3 18 1 18 C0.67 19.65 0.34 21.3 0 23 C0.66 23.33 1.32 23.66 2 24 C0.34385343 24.38218767 -1.32457024 24.71395102 -3 25 C-4 24 -4 24 -4.09765625 20.40234375 C-4.0909822 18.91403133 -4.07902183 17.42573568 -4.0625 15.9375 C-4.05798828 15.17888672 -4.05347656 14.42027344 -4.04882812 13.63867188 C-4.0370068 11.75908129 -4.01907078 9.87953101 -4 8 C-4.99 7.67 -5.98 7.34 -7 7 C-5.35 7 -3.7 7 -2 7 C-1.34 4.69 -0.68 2.38 0 0 Z " fill="#0A0A0A" transform="translate(172,76)"/>
<path d="M0 0 C0.33 0.66 0.66 1.32 1 2 C6.445 1.505 6.445 1.505 12 1 C12 1.66 12 2.32 12 3 C11.01 3.33 10.02 3.66 9 4 C9.928125 4.4640625 9.928125 4.4640625 10.875 4.9375 C12.25 5.625 13.625 6.3125 15 7 C14.67 9.64 14.34 12.28 14 15 C14.99 15 15.98 15 17 15 C17 15.66 17 16.32 17 17 C15.08591243 17.24979445 13.16848389 17.47408014 11.25 17.6875 C10.18265625 17.81511719 9.1153125 17.94273437 8.015625 18.07421875 C4.54039564 17.98868849 3.51692961 17.29220375 1 15 C-0.31836295 14.30419733 -1.64791086 13.62775567 -3 13 C-2.67 12.01 -2.34 11.02 -2 10 C1.3 10.66 4.6 11.32 8 12 C7.05125 10.865625 6.1025 9.73125 5.125 8.5625 C4.59132812 7.92441406 4.05765625 7.28632813 3.5078125 6.62890625 C2.0777243 4.89194996 2.0777243 4.89194996 0 4 C0 2.68 0 1.36 0 0 Z " fill="#0B0A0A" transform="translate(174,203)"/>
<path d="M0 0 C2.3125 0.5625 2.3125 0.5625 4.0625 2.1875 C5.53181297 4.97919464 5.95803513 7.44320914 6.3125 10.5625 C5.3225 10.8925 4.3325 11.2225 3.3125 11.5625 C3.6425 12.5525 3.9725 13.5425 4.3125 14.5625 C3.838125 14.954375 3.36375 15.34625 2.875 15.75 C0.96070367 17.97058374 0.69983012 19.69625709 0.3125 22.5625 C-0.3475 22.2325 -1.0075 21.9025 -1.6875 21.5625 C-1.81125 20.675625 -1.935 19.78875 -2.0625 18.875 C-2.80139789 14.95884117 -4.38152602 12.77688797 -6.6875 9.5625 C-7.38179379 8.2433418 -8.06280495 6.91600594 -8.6875 5.5625 C-3.49395161 0.7312922 -3.49395161 0.7312922 0 0 Z " fill="#131313" transform="translate(184.6875,89.4375)"/>
<path d="M0 0 C0.268125 0.639375 0.53625 1.27875 0.8125 1.9375 C1.88667752 4.33131686 1.88667752 4.33131686 5 5 C7.22818441 5.06937062 9.45834524 5.08457084 11.6875 5.0625 C12.86699219 5.05347656 14.04648438 5.04445312 15.26171875 5.03515625 C16.16535156 5.02355469 17.06898438 5.01195312 18 5 C18.53699151 12.11513755 16.69707634 17.44995746 14 24 C13.566875 23.04480469 13.566875 23.04480469 13.125 22.0703125 C11.7525822 19.54468252 10.58180566 19.12953998 8 18 C7.34 17.34 6.68 16.68 6 16 C7.65 15.67 9.3 15.34 11 15 C11 13.68 11 12.36 11 11 C10.278125 10.71125 9.55625 10.4225 8.8125 10.125 C6.20833333 9.08333333 3.60416667 8.04166667 1 7 C0.67 7.99 0.34 8.98 0 10 C-1.125 6.6875 -1.125 6.6875 -2 3 C-1.34 2.01 -0.68 1.02 0 0 Z " fill="#100F0F" transform="translate(175,191)"/>
<path d="M0 0 C2 2 2 2 2.125 5.625 C2.08375 6.73875 2.0425 7.8525 2 9 C2.99 9 3.98 9 5 9 C6.4783226 6.04335481 6.06032783 3.25770263 6 0 C6.66 0 7.32 0 8 0 C8.33 2.97 8.66 5.94 9 9 C5.47320901 11.35119399 3.97120515 11.21443452 -0.1875 11.125 C-1.27417969 11.10695313 -2.36085937 11.08890625 -3.48046875 11.0703125 C-4.72763672 11.03550781 -4.72763672 11.03550781 -6 11 C-6 11.33 -6 11.66 -6 12 C-4.88625 11.95875 -3.7725 11.9175 -2.625 11.875 C1 12 1 12 3 14 C-0.3 14 -3.6 14 -7 14 C-7.33 15.32 -7.66 16.64 -8 18 C-8 16.68 -8 15.36 -8 14 C-8.66 13.67 -9.32 13.34 -10 13 C-9.34 9.04 -8.68 5.08 -8 1 C-5.03104944 0.01034981 -3.0913386 -0.23779528 0 0 Z " fill="#050404" transform="translate(204,81)"/>
<path d="M0 0 C1.65 0 3.3 0 5 0 C4.79375 0.598125 4.5875 1.19625 4.375 1.8125 C3.69328085 4.28450846 3.69328085 4.28450846 6 7 C7.66128463 7.35919668 9.32900023 7.68911632 11 8 C13.8125 9.4375 13.8125 9.4375 16 11 C16 11.66 16 12.32 16 13 C13.59454362 14.20272819 12.05003047 14.10071472 9.375 14.0625 C8.14910156 14.04896484 8.14910156 14.04896484 6.8984375 14.03515625 C5.95871094 14.01775391 5.95871094 14.01775391 5 14 C4.67 14.66 4.34 15.32 4 16 C4.5775 16.2475 5.155 16.495 5.75 16.75 C8.32939979 18.18299988 10.06121592 19.78424676 12 22 C12 22.66 12 23.32 12 24 C8.7 23.67 5.4 23.34 2 23 C0.72060038 18.90592121 1.43798374 16.18873356 2.578125 12.12890625 C3.29246357 8.52414219 2.74228678 5.58771944 2 2 C1.34 1.34 0.68 0.68 0 0 Z " fill="#2D2D2D" transform="translate(170,191)"/>
<path d="M0 0 C0.495 0.99 0.495 0.99 1 2 C-3.625 6.875 -3.625 6.875 -7 8 C-6.01 9.485 -6.01 9.485 -5 11 C0.1000217 11.34576418 4.97590726 11.02532505 10 10 C10.33 9.34 10.66 8.68 11 8 C11.99 8.99 12.98 9.98 14 11 C11.89679937 11.50404808 9.79240209 12.00310508 7.6875 12.5 C6.51574219 12.7784375 5.34398437 13.056875 4.13671875 13.34375 C1 14 1 14 -2 14 C-2.61657471 14.18788086 -3.23314941 14.37576172 -3.8684082 14.56933594 C-6.60832979 15.12290617 -8.41163097 14.6132962 -11.10546875 13.890625 C-12.08966797 13.63023438 -13.07386719 13.36984375 -14.08789062 13.1015625 C-15.11076172 12.82054688 -16.13363281 12.53953125 -17.1875 12.25 C-18.69280273 11.85167969 -18.69280273 11.85167969 -20.22851562 11.4453125 C-26.2322877 9.83597347 -32.12399323 8.02578842 -38 6 C-33.84096631 4.73369259 -31.39175916 5.59459337 -27.25 6.9375 C-18.27743375 9.82111005 -18.27743375 9.82111005 -9.3671875 7.75390625 C-5.40024575 5.48788967 -2.56066394 3.84099591 0 0 Z " fill="#060505" transform="translate(144,93)"/>
<path d="M0 0 C1.32 0 2.64 0 4 0 C3.67 1.32 3.34 2.64 3 4 C2.34 3.67 1.68 3.34 1 3 C0.67 5.31 0.34 7.62 0 10 C-0.99 10 -1.98 10 -3 10 C-2.505 18.415 -2.505 18.415 -2 27 C-2.66 27 -3.32 27 -4 27 C-4.33 25.02 -4.66 23.04 -5 21 C-5.99 20.67 -6.98 20.34 -8 20 C-8 19.34 -8 18.68 -8 18 C-13.28 18 -18.56 18 -24 18 C-23.505 16.515 -23.505 16.515 -23 15 C-18.05 15.33 -13.1 15.66 -8 16 C-7.67 14.02 -7.34 12.04 -7 10 C-7.99 9.67 -8.98 9.34 -10 9 C-9 8 -9 8 -5.4375 7.9375 C-4.303125 7.958125 -3.16875 7.97875 -2 8 C-1.855625 6.865625 -1.71125 5.73125 -1.5625 4.5625 C-1 1 -1 1 0 0 Z " fill="#3B3A3A" transform="translate(171,74)"/>
<path d="M0 0 C0.33 0.99 0.66 1.98 1 3 C1.7425 3.28875 2.485 3.5775 3.25 3.875 C6.65938917 5.26975012 8.52693 7.31495257 11 10 C4.79485526 12.13619737 -0.42684522 13.36517527 -7 13 C-7.66 11.68 -8.32 10.36 -9 9 C-8.071875 8.443125 -7.14375 7.88625 -6.1875 7.3125 C-3.0580593 5.04212145 -1.70245949 3.40491897 0 0 Z " fill="#1E1E1E" transform="translate(146,92)"/>
<path d="M0 0 C0.33 0.99 0.66 1.98 1 3 C3.97 3.495 3.97 3.495 7 4 C7.92470553 8.71599818 8.22923777 11.67265609 6 16 C4.02 16 2.04 16 0 16 C-0.28875 16.94875 -0.5775 17.8975 -0.875 18.875 C-2 22 -2 22 -4 24 C-6.1640625 23.7578125 -6.1640625 23.7578125 -8.625 23.125 C-9.44226563 22.92132813 -10.25953125 22.71765625 -11.1015625 22.5078125 C-11.72804687 22.34023437 -12.35453125 22.17265625 -13 22 C-12.360625 21.401875 -11.72125 20.80375 -11.0625 20.1875 C-8.79689611 18.09189663 -8.79689611 18.09189663 -8 15 C-6.453125 15.0309375 -6.453125 15.0309375 -4.875 15.0625 C-1.44847031 15.00723339 1.64572414 14.65449285 5 14 C5.33 11.03 5.66 8.06 6 5 C4.35 5 2.7 5 1 5 C0.67 3.35 0.34 1.7 0 0 Z " fill="#303030" transform="translate(218,82)"/>
<path d="M0 0 C0.103125 0.639375 0.20625 1.27875 0.3125 1.9375 C0.6528125 2.9584375 0.6528125 2.9584375 1 4 C1.99 4.33 2.98 4.66 4 5 C4 8.3 4 11.6 4 15 C-3.26 14.67 -10.52 14.34 -18 14 C-18 13.67 -18 13.34 -18 13 C-17.41992188 12.97421875 -16.83984375 12.9484375 -16.2421875 12.921875 C-10.80824249 12.52733114 -7.23223001 11.7161044 -3 8 C-1.62533375 5.52363988 -1.62533375 5.52363988 -1 3 C-0.67 2.01 -0.34 1.02 0 0 Z " fill="#292929" transform="translate(154,68)"/>
<path d="M0 0 C4.86118252 5.95886889 4.86118252 5.95886889 5.375 9.8125 C4.88157547 14.00660847 3.14580144 15.32606877 0 18 C-0.99 17.67 -1.98 17.34 -3 17 C-2.98839844 16.24074219 -2.97679688 15.48148438 -2.96484375 14.69921875 C-2.95582031 13.70535156 -2.94679688 12.71148437 -2.9375 11.6875 C-2.92009766 10.20830078 -2.92009766 10.20830078 -2.90234375 8.69921875 C-2.87670138 5.90036151 -2.87670138 5.90036151 -4 3 C-3.01 3 -2.02 3 -1 3 C-0.67 2.01 -0.34 1.02 0 0 Z " fill="#2F2F2F" transform="translate(84,235)"/>
<path d="M0 0 C2.93785297 0.32642811 4.81876259 0.8824406 7.3125 2.5 C9.49588395 5.73464289 9.44004205 8.05506488 9.43359375 11.87890625 C8.89156585 14.53044812 8.1751456 15.41273159 6 17 C3.32681142 17.66957496 0.76174963 17.77362708 -2 18 C-2 17.34 -2 16.68 -2 16 C-0.68 16 0.64 16 2 16 C2.33 15.34 2.66 14.68 3 14 C3.33 13.67 3.66 13.34 4 13 C3.60918594 8.01712068 2.44012039 4.34977982 0 0 Z " fill="#303030" transform="translate(191,219)"/>
<path d="M0 0 C1.66611905 -0.042721 3.33382885 -0.04063832 5 0 C6 1 6 1 6.375 3.3125 C6 6 6 6 3.875 8.375 C1 10 1 10 -2.1875 9.875 C-5 9 -5 9 -7 7 C-7.125 4.375 -7.125 4.375 -7 2 C-5.0625 1.4375 -5.0625 1.4375 -3 1 C-2 2 -2 2 -1.9375 4.5625 C-1.958125 5.366875 -1.97875 6.17125 -2 7 C-1.34 6.67 -0.68 6.34 0 6 C0 4.02 0 2.04 0 0 Z " fill="#121212" transform="translate(149,150)"/>
<path d="M0 0 C-3.75 3 -3.75 3 -6 3 C-5.95875 3.928125 -5.9175 4.85625 -5.875 5.8125 C-6 9 -6 9 -8 12 C-9.32 11.67 -10.64 11.34 -12 11 C-11.979375 9.865625 -11.95875 8.73125 -11.9375 7.5625 C-11.58422523 4.18424326 -11.58422523 4.18424326 -13 3 C-16.63194641 2.80850919 -16.63194641 2.80850919 -20 4 C-20.33 2.68 -20.66 1.36 -21 0 C-19.41058594 0.01740234 -19.41058594 0.01740234 -17.7890625 0.03515625 C-16.40104342 0.04453476 -15.01302245 0.05363489 -13.625 0.0625 C-12.57699219 0.07506836 -12.57699219 0.07506836 -11.5078125 0.08789062 C-7.20335464 0.10858513 -4.07721992 -1.22316597 0 0 Z " fill="#353535" transform="translate(217,79)"/>
<path d="M0 0 C1.65 0.33 3.3 0.66 5 1 C5.33 5.29 5.66 9.58 6 14 C3.36 14.66 0.72 15.32 -2 16 C-1.34 10.72 -0.68 5.44 0 0 Z " fill="#131313" transform="translate(144,160)"/>
<path d="M0 0 C3.875 0.875 3.875 0.875 5 2 C5.36090226 9.45864662 5.36090226 9.45864662 3 13 C0.5625 12.625 0.5625 12.625 -2 12 C-3.40457737 9.19084526 -3.24895157 7.11189466 -3 4 C-1.5 1.625 -1.5 1.625 0 0 Z M0 3 C0.33 3.99 0.66 4.98 1 6 C1.33 5.01 1.66 4.02 2 3 C1.34 3 0.68 3 0 3 Z " fill="#211C1C" transform="translate(135,66)"/>
<path d="M0 0 C0 0.33 0 0.66 0 1 C-11.385 1.99 -11.385 1.99 -23 3 C-23 3.33 -23 3.66 -23 4 C-26.04133789 4.19572967 -29.08276063 4.38183916 -32.125 4.5625 C-33.40890625 4.64661133 -33.40890625 4.64661133 -34.71875 4.73242188 C-39.32181859 4.99798352 -43.45819546 5.00515346 -48 4 C-48 3.67 -48 3.34 -48 3 C-31.93544984 1.01838483 -16.19442218 -0.16358002 0 0 Z " fill="#AFB1B3" transform="translate(109,85)"/>
<path d="M0 0 C4.875 0.875 4.875 0.875 6 2 C6.47058824 8.23529412 6.47058824 8.23529412 4.5 11.4375 C4.005 11.953125 3.51 12.46875 3 13 C1.35 12.67 -0.3 12.34 -2 12 C-3.25 5.375 -3.25 5.375 -1 2 C-0.67 2.99 -0.34 3.98 0 5 C0.99 5.33 1.98 5.66 3 6 C3 4.35 3 2.7 3 1 C2.01 0.67 1.02 0.34 0 0 Z " fill="#070505" transform="translate(101,61)"/>
<path d="M0 0 C1.10844919 3.32534757 0.84454356 5.62182575 0 9 C0.66 9.33 1.32 9.66 2 10 C-2.22862004 10.50469616 -6.45797659 11.00293584 -10.6875 11.5 C-11.88568359 11.64308594 -13.08386719 11.78617188 -14.31835938 11.93359375 C-16.05375977 12.13662109 -16.05375977 12.13662109 -17.82421875 12.34375 C-18.88729248 12.46943359 -19.95036621 12.59511719 -21.0456543 12.72460938 C-23.72045416 12.97394201 -26.31608769 13.05207267 -29 13 C-29 12.34 -29 11.68 -29 11 C-25.43826523 10.4944461 -21.87550181 9.99653886 -18.3125 9.5 C-17.30509766 9.35691406 -16.29769531 9.21382812 -15.25976562 9.06640625 C-14.28330078 8.93105469 -13.30683594 8.79570313 -12.30078125 8.65625 C-11.40528564 8.53056641 -10.50979004 8.40488281 -9.5871582 8.27539062 C-7.03602639 8.00383484 -4.5633257 7.95152103 -2 8 C-1.7834375 6.576875 -1.7834375 6.576875 -1.5625 5.125 C-1 2 -1 2 0 0 Z " fill="#4B4A4A" transform="translate(64,74)"/>
<path d="M0 0 C1.86323318 0.25288812 3.71708432 0.57690153 5.5625 0.9375 C6.57441406 1.13214844 7.58632812 1.32679687 8.62890625 1.52734375 C9.80259766 1.76130859 9.80259766 1.76130859 11 2 C11 3.65 11 5.3 11 7 C4.565 7.495 4.565 7.495 -2 8 C-1.125 1.125 -1.125 1.125 0 0 Z " fill="#940000" transform="translate(66,75)"/>
<path d="M0 0 C0 0.33 0 0.66 0 1 C-11.88 1 -23.76 1 -36 1 C-36 0.67 -36 0.34 -36 0 C-34.17662109 -0.09087891 -34.17662109 -0.09087891 -32.31640625 -0.18359375 C-30.73175772 -0.26798332 -29.14712298 -0.3526321 -27.5625 -0.4375 C-26.76005859 -0.47681641 -25.95761719 -0.51613281 -25.13085938 -0.55664062 C-21.24760439 -0.4054296 -21.24760439 -0.4054296 -18 -2 C-11.14228699 -3.28137198 -6.14036357 -3.41131309 0 0 Z " fill="#0C0B0B" transform="translate(130,80)"/>
<path d="M0 0 C2.3125 0.5625 2.3125 0.5625 4.0625 2.1875 C5.53181297 4.97919464 5.95803513 7.44320914 6.3125 10.5625 C5.6525 10.5625 4.9925 10.5625 4.3125 10.5625 C3.6525 8.2525 2.9925 5.9425 2.3125 3.5625 C0.9925 3.2325 -0.3275 2.9025 -1.6875 2.5625 C-3.0075 4.2125 -4.3275 5.8625 -5.6875 7.5625 C-3.76173885 10.00179746 -1.88659405 12.36340595 0.3125 14.5625 C1.3025 13.5725 2.2925 12.5825 3.3125 11.5625 C3.6425 12.5525 3.9725 13.5425 4.3125 14.5625 C3.838125 14.954375 3.36375 15.34625 2.875 15.75 C0.96070367 17.97058374 0.69983012 19.69625709 0.3125 22.5625 C-0.3475 22.2325 -1.0075 21.9025 -1.6875 21.5625 C-1.81125 20.675625 -1.935 19.78875 -2.0625 18.875 C-2.80139789 14.95884117 -4.38152602 12.77688797 -6.6875 9.5625 C-7.38179379 8.2433418 -8.06280495 6.91600594 -8.6875 5.5625 C-3.49395161 0.7312922 -3.49395161 0.7312922 0 0 Z " fill="#040303" transform="translate(184.6875,89.4375)"/>
<path d="M0 0 C3.46566434 5.19849651 5.46188968 9.68750771 5 16 C4.67 15.34 4.34 14.68 4 14 C2.34795544 13.29788106 0.68076231 12.63028587 -1 12 C-2.58272601 10.41727399 -2.34735747 8.61965997 -2.5625 6.4375 C-2.64628906 5.61121094 -2.73007813 4.78492188 -2.81640625 3.93359375 C-2.87699219 3.29550781 -2.93757812 2.65742188 -3 2 C-2.01 1.34 -1.02 0.68 0 0 Z " fill="#121212" transform="translate(153,159)"/>
<path d="M0 0 C1.32 0.33 2.64 0.66 4 1 C3.23737281 3.56520056 2.46526614 6.12688885 1.6875 8.6875 C1.47416016 9.40873047 1.26082031 10.12996094 1.04101562 10.87304688 C-0.20751397 14.95406151 -1.59420901 18.42306149 -4 22 C-5.04057699 18.87826902 -4.99960343 18.10582494 -4.2578125 15.05859375 C-4.07863281 14.31029297 -3.89945312 13.56199219 -3.71484375 12.79101562 C-3.52019531 12.01435547 -3.32554688 11.23769531 -3.125 10.4375 C-2.93808594 9.65697266 -2.75117187 8.87644531 -2.55859375 8.07226562 C-1.15803571 2.31607143 -1.15803571 2.31607143 0 0 Z " fill="#121212" transform="translate(128,126)"/>
<path d="M0 0 C0.33 0.99 0.66 1.98 1 3 C2.30581356 5.0180755 3.63636792 7.02053408 5 9 C4.22914062 9.27714844 3.45828125 9.55429688 2.6640625 9.83984375 C1.66117188 10.20207031 0.65828125 10.56429687 -0.375 10.9375 C-1.37273437 11.29714844 -2.37046875 11.65679687 -3.3984375 12.02734375 C-5.93504165 12.92349292 -5.93504165 12.92349292 -8 14 C-6.6744419 10.37723685 -5.05653045 7.36494652 -2.875 4.1875 C-2.33617188 3.39730469 -1.79734375 2.60710937 -1.2421875 1.79296875 C-0.83226563 1.20128906 -0.42234375 0.60960937 0 0 Z " fill="#343434" transform="translate(68,227)"/>
<path d="M0 0 C0.99 0.33 1.98 0.66 3 1 C3.73046875 3.06640625 3.73046875 3.06640625 4.1875 5.5625 C4.34605469 6.38878906 4.50460938 7.21507812 4.66796875 8.06640625 C4.77753906 8.70449219 4.88710937 9.34257812 5 10 C-0.75 9.125 -0.75 9.125 -3 8 C-3.33 9.32 -3.66 10.64 -4 12 C-5.40253926 7.79238221 -3.90602531 5.88264416 -2 2 C-1.34 1.34 -0.68 0.68 0 0 Z " fill="#101010" transform="translate(73,220)"/>
<path d="M0 0 C3.72390287 2.36975637 7.09634199 4.64962537 10 8 C10 8.66 10 9.32 10 10 C6.7 9.67 3.4 9.34 0 9 C-0.84454356 5.62182575 -1.10844919 3.32534757 0 0 Z " fill="#1F1F1F" transform="translate(172,205)"/>
<path d="M0 0 C2.97 1.98 2.97 1.98 6 4 C5.34 4.66 4.68 5.32 4 6 C4.66 7.65 5.32 9.3 6 11 C7.65 10.67 9.3 10.34 11 10 C11 10.99 11 11.98 11 13 C9.35 13 7.7 13 6 13 C6.33 15.31 6.66 17.62 7 20 C6.34 20.33 5.68 20.66 5 21 C5 18.69 5 16.38 5 14 C3.68 13.67 2.36 13.34 1 13 C1.99 12.67 2.98 12.34 4 12 C2.35 8.37 0.7 4.74 -1 1 C-0.67 0.67 -0.34 0.34 0 0 Z " fill="#030202" transform="translate(85,205)"/>
<path d="M0 0 C0.33 0 0.66 0 1 0 C1.13277344 0.69867188 1.26554687 1.39734375 1.40234375 2.1171875 C1.57894531 3.02726562 1.75554687 3.93734375 1.9375 4.875 C2.11152344 5.77992187 2.28554687 6.68484375 2.46484375 7.6171875 C2.89963701 9.99956317 2.89963701 9.99956317 4 12 C4.1228777 13.93460941 4.17554888 15.87402904 4.1875 17.8125 C4.20167969 18.85019531 4.21585937 19.88789062 4.23046875 20.95703125 C3.99714427 24.03770533 3.30118886 26.21761592 2 29 C1.67 29 1.34 29 1 29 C1.02320312 27.97519531 1.04640625 26.95039062 1.0703125 25.89453125 C1.08908036 24.53386149 1.10727947 23.1731838 1.125 21.8125 C1.14175781 21.13896484 1.15851563 20.46542969 1.17578125 19.77148438 C1.21593708 15.65551204 0.64780917 12.73802626 -1 9 C-1.28640679 6.26214525 -1.13843105 3.768621 -1 1 C-0.67 0.67 -0.34 0.34 0 0 Z " fill="#604B4B" transform="translate(77,100)"/>
<path d="M0 0 C-1.32273512 3.59758392 -2.9194198 6.63737135 -5.0625 9.8125 C-5.58972656 10.60269531 -6.11695313 11.39289062 -6.66015625 12.20703125 C-7.10230469 12.79871094 -7.54445313 13.39039063 -8 14 C-8.33 14 -8.66 14 -9 14 C-9.29254918 9.02666392 -9.16504232 5.9563029 -6 2 C-3.80010103 0.60006429 -2.60233337 0 0 0 Z " fill="#FF6600" transform="translate(19,9)"/>
<path d="M0 0 C0 2.31 0 4.62 0 7 C-5.35048061 6.62671065 -7.50912907 5.0042343 -11 1 C-9.54182203 0.83197949 -8.0834516 0.66562857 -6.625 0.5 C-5.81289062 0.4071875 -5.00078125 0.314375 -4.1640625 0.21875 C-2 0 -2 0 0 0 Z " fill="#121212" transform="translate(90,219)"/>
<path d="M0 0 C1.65 0.33 3.3 0.66 5 1 C5.125 3.875 5.125 3.875 5 7 C4.34 7.66 3.68 8.32 3 9 C0.875 8.625 0.875 8.625 -1 8 C-1.125 2.25 -1.125 2.25 0 0 Z " fill="#131313" transform="translate(199,82)"/>
<path d="M0 0 C1.32 0 2.64 0 4 0 C3.67 2.97 3.34 5.94 3 9 C1.68 9.33 0.36 9.66 -1 10 C-2 9 -2 9 -2.1875 5.5625 C-2 2 -2 2 0 0 Z " fill="#161515" transform="translate(214,80)"/>
<path d="M0 0 C4.455 0.99 4.455 0.99 9 2 C9 3.32 9 4.64 9 6 C7.02 6.66 5.04 7.32 3 8 C0 2.25 0 2.25 0 0 Z " fill="#0E0E0E" transform="translate(88,209)"/>
<path d="M0 0 C0.66 0 1.32 0 2 0 C2.8125 2.6875 2.8125 2.6875 3 6 C0.84614331 8.61955544 -0.95946594 10.47973297 -4 12 C-4.46523063 13.89533342 -4.46523063 13.89533342 -4.625 16.0625 C-4.74875 17.361875 -4.8725 18.66125 -5 20 C-5.33 20 -5.66 20 -6 20 C-6.78368469 11.03116407 -6.78368469 11.03116407 -3.625 6.875 C-1 5 -1 5 1 5 C0.67 3.35 0.34 1.7 0 0 Z " fill="#4B4B4B" transform="translate(66,50)"/>
<path d="M0 0 C0.33 0.99 0.66 1.98 1 3 C0.02417969 3.10957031 -0.95164062 3.21914062 -1.95703125 3.33203125 C-3.86548828 3.56986328 -3.86548828 3.56986328 -5.8125 3.8125 C-7.70935547 4.03873047 -7.70935547 4.03873047 -9.64453125 4.26953125 C-12.91525811 4.98155211 -14.058842 5.36608673 -16 8 C-16 6.68 -16 5.36 -16 4 C-12.65479742 2.06757715 -9.55232518 1.4536147 -5.75 0.875 C-4.67234375 0.70742187 -3.5946875 0.53984375 -2.484375 0.3671875 C-1.66453125 0.24601562 -0.8446875 0.12484375 0 0 Z " fill="#646464" transform="translate(34,85)"/>
<path d="M0 0 C0 0.99 0 1.98 0 3 C-3.04034208 5.86660825 -5.94372399 7.937642 -10 9 C-13.8125 8.625 -13.8125 8.625 -17 8 C-16.34 6.35 -15.68 4.7 -15 3 C-14.67 4.32 -14.34 5.64 -14 7 C-7.8203352 5.82799461 -4.56033396 4.33231726 0 0 Z " fill="#666363" transform="translate(76,130)"/>
<path d="M0 0 C-2.31 2.97 -4.62 5.94 -7 9 C-7.33 8.34 -7.66 7.68 -8 7 C-8.66 7 -9.32 7 -10 7 C-10 6.34 -10 5.68 -10 5 C-10.66 4.67 -11.32 4.34 -12 4 C-10.35 3.67 -8.7 3.34 -7 3 C-6.67 2.01 -6.34 1.02 -6 0 C-3.42525708 -0.99667468 -2.51072708 -1.25536354 0 0 Z " fill="#1D1C1C" transform="translate(93,226)"/>
<path d="M0 0 C-0.825 0.474375 -1.65 0.94875 -2.5 1.4375 C-3.325 1.953125 -4.15 2.46875 -5 3 C-5 3.33 -5 3.66 -5 4 C-2.36 4.33 0.28 4.66 3 5 C3 5.33 3 5.66 3 6 C-3.09781001 6.22084624 -8.21642935 6.01167675 -14 4 C-11.58592302 2.39061535 -9.65955563 1.34509262 -7 0.3125 C-5.9790625 -0.09548828 -5.9790625 -0.09548828 -4.9375 -0.51171875 C-3 -1 -3 -1 0 0 Z " fill="#090808" transform="translate(171,119)"/>
<path d="M0 0 C1.0209375 0.433125 1.0209375 0.433125 2.0625 0.875 C5.09749857 2.09625867 5.09749857 2.09625867 8.75 3 C9.8225 3.33 10.895 3.66 12 4 C12.33 4.66 12.66 5.32 13 6 C4.91111111 6.46666667 4.91111111 6.46666667 1.4375 4.6875 C0 3 0 3 0 0 Z " fill="#111111" transform="translate(70,229)"/>
<path d="M0 0 C0.33 0 0.66 0 1 0 C1.36923077 5.41538462 1.36923077 5.41538462 -0.5 8.375 C-0.995 8.91125 -1.49 9.4475 -2 10 C-4.475 9.01 -4.475 9.01 -7 8 C-5.74381926 4.23145777 -4.33985294 3.92041544 -1 2 C-0.67 1.34 -0.34 0.68 0 0 Z " fill="#353535" transform="translate(210,106)"/>
<path d="M0 0 C0.4125 0.639375 0.825 1.27875 1.25 1.9375 C3.17810487 4.20990931 4.11424181 4.60196439 7 5 C5.8553125 5.6496875 5.8553125 5.6496875 4.6875 6.3125 C2.03713747 7.83752358 2.03713747 7.83752358 0.3125 9.6875 C-0.120625 10.120625 -0.55375 10.55375 -1 11 C-1.66 11 -2.32 11 -3 11 C-2.32829194 7.1936543 -1.27253436 3.64793184 0 0 Z " fill="#732D2D" transform="translate(69,102)"/>
<path d="M0 0 C3.3 1.65 6.6 3.3 10 5 C8 7 8 7 4.875 7.125 C3.92625 7.08375 2.9775 7.0425 2 7 C0.5393715 4.35261084 0 3.10551666 0 0 Z " fill="#121212" transform="translate(78,223)"/>
<path d="M0 0 C1.2065625 0.0309375 1.2065625 0.0309375 2.4375 0.0625 C2.7675 1.7125 3.0975 3.3625 3.4375 5.0625 C1.4575 5.3925 -0.5225 5.7225 -2.5625 6.0625 C-2.94468767 4.40635343 -3.27645102 2.73792976 -3.5625 1.0625 C-2.5625 0.0625 -2.5625 0.0625 0 0 Z " fill="#0D0909" transform="translate(73.5625,100.9375)"/>
<path d="M0 0 C-0.33 0.99 -0.66 1.98 -1 3 C-2.79133978 3.05391993 -4.58313899 3.09275571 -6.375 3.125 C-7.37273438 3.14820312 -8.37046875 3.17140625 -9.3984375 3.1953125 C-12 3 -12 3 -14 1 C-9.27616037 0.34843591 -4.78025483 -0.11950637 0 0 Z " fill="#676767" transform="translate(65,90)"/>
<path d="M0 0 C0.33 0 0.66 0 1 0 C4.125 9.375 4.125 9.375 4.0625 13.6875 C4.05347656 14.49574219 4.04445312 15.30398437 4.03515625 16.13671875 C4.02355469 16.75160156 4.01195312 17.36648437 4 18 C3.34 18 2.68 18 2 18 C0.77100654 11.93184478 -0.27560214 6.20104812 0 0 Z " fill="#736363" transform="translate(157,40)"/>
<path d="M0 0 C0.33 0 0.66 0 1 0 C1 9.57 1 19.14 1 29 C0.67 29 0.34 29 0 29 C0 19.43 0 9.86 0 0 Z " fill="#FF6600" transform="translate(245,17)"/>
<path d="M0 0 C1.0625 1.875 1.0625 1.875 2 4 C1.67 4.66 1.34 5.32 1 6 C0.34 6 -0.32 6 -1 6 C-1.33 8.97 -1.66 11.94 -2 15 C-4 12 -4 12 -3.8125 8.625 C-3.03017106 5.13460935 -2.02785348 2.90952891 0 0 Z " fill="#755B5B" transform="translate(68,35)"/>
<path d="M0 0 C0.99 0 1.98 0 3 0 C3 2.31 3 4.62 3 7 C1.68 7.33 0.36 7.66 -1 8 C-0.67 5.36 -0.34 2.72 0 0 Z " fill="#121212" transform="translate(174,84)"/>
<path d="M0 0 C0.33 0 0.66 0 1 0 C0.88590407 1.45922693 0.75834456 2.91740598 0.625 4.375 C0.55539063 5.18710938 0.48578125 5.99921875 0.4140625 6.8359375 C0 9 0 9 -2 11 C-2.12375 10.071875 -2.12375 10.071875 -2.25 9.125 C-2.81258459 6.81562433 -2.81258459 6.81562433 -5.0625 5.75 C-5.701875 5.5025 -6.34125 5.255 -7 5 C-5.02 4.67 -3.04 4.34 -1 4 C-0.67 2.68 -0.34 1.36 0 0 Z " fill="#2B2A2A" transform="translate(190,204)"/>
<path d="M0 0 C0.66 0.33 1.32 0.66 2 1 C1.2884375 2.0828125 1.2884375 2.0828125 0.5625 3.1875 C-0.94152903 5.89475226 -1.56599182 7.96194275 -2 11 C-4 8 -4 8 -3.8125 4.9375 C-3 2 -3 2 0 0 Z " fill="#454545" transform="translate(86,196)"/>
<path d="M0 0 C0 1.32 0 2.64 0 4 C-4.62 4 -9.24 4 -14 4 C-14 3.67 -14 3.34 -14 3 C-13.38511719 2.95101562 -12.77023438 2.90203125 -12.13671875 2.8515625 C-11.32847656 2.77679688 -10.52023438 2.70203125 -9.6875 2.625 C-8.88699219 2.55539063 -8.08648437 2.48578125 -7.26171875 2.4140625 C-4.40085313 1.89031163 -2.90947141 0 0 0 Z " fill="#181312" transform="translate(150,78)"/>
<path d="M0 0 C1.32 0 2.64 0 4 0 C3.67 1.32 3.34 2.64 3 4 C2.34 4 1.68 4 1 4 C0.67 5.32 0.34 6.64 0 8 C-1 7 -1 7 -1.125 4 C-1 1 -1 1 0 0 Z " fill="#0F0909" transform="translate(128,36)"/>
<path d="M0 0 C0.66 0.33 1.32 0.66 2 1 C1.67 2.65 1.34 4.3 1 6 C-0.98 6 -2.96 6 -5 6 C-5.33 6.66 -5.66 7.32 -6 8 C-6 7.01 -6 6.02 -6 5 C-4.02 4.67 -2.04 4.34 0 4 C0 2.68 0 1.36 0 0 Z " fill="#383838" transform="translate(223,92)"/>
<path d="M0 0 C0.66 0 1.32 0 2 0 C1.835 0.598125 1.67 1.19625 1.5 1.8125 C0.8885876 4.11344336 0.8885876 4.11344336 1 7 C-0.32 7 -1.64 7 -3 7 C-1.125 1.125 -1.125 1.125 0 0 Z " fill="#565555" transform="translate(16,92)"/>
<path d="M0 0 C0.103125 0.556875 0.20625 1.11375 0.3125 1.6875 C1.13133577 4.44176578 2.45853781 6.58727657 4 9 C1.5625 8.25 1.5625 8.25 -1 7 C-1.9375 5.0625 -1.9375 5.0625 -2 3 C-1.34 2.01 -0.68 1.02 0 0 Z " fill="#606060" transform="translate(58,243)"/>
<path d="M0 0 C0.66 0.33 1.32 0.66 2 1 C0.515 4.465 0.515 4.465 -1 8 C-3 6 -3 6 -3.125 3.375 C-3.08375 2.59125 -3.0425 1.8075 -3 1 C-2.01 0.67 -1.02 0.34 0 0 Z " fill="#111111" transform="translate(94,217)"/>
<path d="M0 0 C0 0.99 0 1.98 0 3 C-4.455 3.495 -4.455 3.495 -9 4 C-9.33 3.01 -9.66 2.02 -10 1 C-2.25 0 -2.25 0 0 0 Z " fill="#050505" transform="translate(193,196)"/>
<path d="M0 0 C0 0.66 0 1.32 0 2 C-3.3 2.33 -6.6 2.66 -10 3 C-8.0130571 -0.97388579 -3.91761109 -0.08705802 0 0 Z " fill="#393939" transform="translate(92,169)"/>
<path d="M0 0 C0.33 0.99 0.66 1.98 1 3 C-3.16138263 3.08159574 -6.9472484 2.98248524 -11 2 C-11 1.67 -11 1.34 -11 1 C-9.54182203 0.83197949 -8.0834516 0.66562857 -6.625 0.5 C-5.81289063 0.4071875 -5.00078125 0.314375 -4.1640625 0.21875 C-2 0 -2 0 0 0 Z " fill="#727272" transform="translate(59,82)"/>
<path d="M0 0 C0.8125 1.625 0.8125 1.625 1 4 C-0.46818136 6.24609835 -2.15852858 8.02378677 -4 10 C-4 7 -4 7 -3 4 C-2.34 4 -1.68 4 -1 4 C-0.67 2.68 -0.34 1.36 0 0 Z " fill="#504F4F" transform="translate(98,214)"/>
<path d="M0 0 C0.33 1.32 0.66 2.64 1 4 C2.32 4 3.64 4 5 4 C5 4.66 5 5.32 5 6 C2.69 5.67 0.38 5.34 -2 5 C-1.34 3.35 -0.68 1.7 0 0 Z " fill="#726767" transform="translate(61,133)"/>
<path d="M0 0 C0.66 0.99 1.32 1.98 2 3 C1.525625 3.391875 1.05125 3.78375 0.5625 4.1875 C-1.35179633 6.40808374 -1.61266988 8.13375709 -2 11 C-2.66 10.67 -3.32 10.34 -4 10 C-3.52449439 8.51965236 -3.04448784 7.04074979 -2.5625 5.5625 C-2.29566406 4.73878906 -2.02882812 3.91507812 -1.75390625 3.06640625 C-1 1 -1 1 0 0 Z " fill="#090909" transform="translate(187,101)"/>
<path d="M0 0 C0.66 0.66 1.32 1.32 2 2 C-1.96 1.67 -5.92 1.34 -10 1 C-10 0.67 -10 0.34 -10 0 C-3.42391304 -1.3451087 -3.42391304 -1.3451087 0 0 Z " fill="#AAABAD" transform="translate(71,88)"/>
<path d="M0 0 C-2.94017338 1.52453435 -5.85472185 2.95157395 -9 4 C-9.99 3.67 -10.98 3.34 -12 3 C-4.71428571 -1.71428571 -4.71428571 -1.71428571 0 0 Z " fill="#060505" transform="translate(136,188)"/>
<path d="M0 0 C2.475 0.495 2.475 0.495 5 1 C5 2.65 5 4.3 5 6 C3.2925002 4.71937515 1.62626404 3.38232443 0 2 C0 1.34 0 0.68 0 0 Z " fill="#383838" transform="translate(65,165)"/>
<path d="M0 0 C0.66 0.33 1.32 0.66 2 1 C0.35 2.65 -1.3 4.3 -3 6 C-3 5.01 -3 4.02 -3 3 C-3.66 2.67 -4.32 2.34 -5 2 C-2.625 0.9375 -2.625 0.9375 0 0 Z " fill="#414141" transform="translate(91,225)"/>
<path d="M0 0 C0.66 1.32 1.32 2.64 2 4 C-0.475 5.485 -0.475 5.485 -3 7 C-3 3.48283697 -2.17554415 2.62878252 0 0 Z " fill="#555555" transform="translate(73,220)"/>
<path d="M0 0 C0.99 1.32 1.98 2.64 3 4 C0.3333581 5.33332095 -1.16680303 4.67102033 -4 4 C-4 3.01 -4 2.02 -4 1 C-2.68 0.67 -1.36 0.34 0 0 Z " fill="#0D0D0D" transform="translate(140,155)"/>
<path d="M0 0 C1.875 0.5625 1.875 0.5625 4 2 C5.25 5.625 5.25 5.625 6 9 C0.42857143 3.85714286 0.42857143 3.85714286 0 0 Z " fill="#645858" transform="translate(65,93)"/>
<path d="" fill="#0088AA" transform="translate(0,0)"/>
</svg>
